<svg width="30" height="38" viewBox="0 0 30 38" fill="none" xmlns="http://www.w3.org/2000/svg">
<path d="M20.9997 18.7501V11.8329C21.0036 10.8362 20.8097 9.84862 20.4292 8.92741C20.0487 8.00619 19.4891 7.16964 18.783 6.46622L17.5288 5.21672C16.8254 4.51058 15.9889 3.95105 15.0677 3.57055C14.1464 3.19005 13.1589 2.99614 12.1622 3.00006H8.74967C7.04844 3.00191 5.41741 3.67855 4.21445 4.8815C3.0115 6.08446 2.33486 7.71549 2.33301 9.41673V18.7501C2.33486 20.4513 3.0115 22.0824 4.21445 23.2853C5.41741 24.4883 7.04844 25.1649 8.74967 25.1668H14.583C16.2842 25.1649 17.9153 24.4883 19.1182 23.2853C20.3212 22.0824 20.9978 20.4513 20.9997 18.7501ZM5.83301 18.7501V9.41673C5.83301 8.64318 6.1403 7.90131 6.68728 7.35433C7.23426 6.80735 7.97613 6.50006 8.74967 6.50006H12.1668C12.3903 6.50357 12.6131 6.52542 12.833 6.56539V8.83339C12.833 9.45223 13.0788 10.0458 13.5164 10.4833C13.954 10.9209 14.5475 11.1668 15.1663 11.1668H17.4343C17.4743 11.3867 17.4962 11.6095 17.4997 11.8329V18.7501C17.4997 19.5236 17.1924 20.2655 16.6454 20.8125C16.0984 21.3595 15.3566 21.6668 14.583 21.6668H8.74967C7.97613 21.6668 7.23426 21.3595 6.68728 20.8125C6.1403 20.2655 5.83301 19.5236 5.83301 18.7501ZM26.833 12.9168V24.5834C26.8312 26.2847 26.1545 27.9157 24.9516 29.1187C23.7486 30.3216 22.1176 30.9982 20.4163 31.0001H11.083C10.6189 31.0001 10.1738 30.8157 9.84557 30.4875C9.51738 30.1593 9.33301 29.7142 9.33301 29.2501C9.33301 28.786 9.51738 28.3409 9.84557 28.0127C10.1738 27.6845 10.6189 27.5001 11.083 27.5001H20.4163C21.1899 27.5001 21.9318 27.1928 22.4787 26.6458C23.0257 26.0988 23.333 25.357 23.333 24.5834V12.9168C23.333 12.4526 23.5174 12.0075 23.8456 11.6793C24.1738 11.3511 24.6189 11.1668 25.083 11.1668C25.5471 11.1668 25.9922 11.3511 26.3204 11.6793C26.6486 12.0075 26.833 12.4526 26.833 12.9168Z" fill="white"/>
<path d="M25.2001 12.3334V24.1334C25.2001 26.8948 22.9615 29.1334 20.2001 29.1334H10.7334" stroke="#FF3969" stroke-width="4" stroke-linecap="round"/>
</svg>
