<svg width="73" height="47" viewBox="0 0 73 47" fill="none" xmlns="http://www.w3.org/2000/svg">
<path fill-rule="evenodd" clip-rule="evenodd" d="M0.64558 45.2794C0.77385 45.3556 0.81941 45.2675 0.86235 45.1716C0.91471 45.1888 0.96864 45.2066 1.02257 45.2245C0.94667 45.3519 1.03451 45.3983 1.13172 45.4399C1.11391 45.4938 1.09611 45.5478 1.0783 45.6017C0.95029 45.5274 0.90499 45.6147 0.86206 45.7106C0.80813 45.6928 0.7542 45.675 0.70184 45.6577C0.77643 45.5289 0.68833 45.4833 0.59216 45.4412C0.60997 45.3873 0.62777 45.3333 0.64558 45.2794ZM1.88465 45.3305C2.10587 45.3247 2.25955 45.1848 2.58364 45.3819C2.48177 45.8033 1.92601 45.3234 1.88487 45.868C1.5691 45.8478 1.87658 45.5125 1.88465 45.3305ZM8.60586 43.4265C8.01779 43.215 8.1947 43.094 7.6367 43.1065C7.97472 42.7128 7.3381 42.8086 7.47365 42.5161C8.12689 42.6798 8.39495 43.0388 8.60586 43.4265ZM9.41196 42.6179C9.35856 42.7797 9.30516 42.9414 9.25176 43.1032C9.04896 42.9349 8.94276 42.7186 8.92586 42.4574C9.08766 42.5108 9.24866 42.5639 9.41196 42.6179ZM9.30076 41.8652C9.66986 42.1466 9.87836 42.1478 10.4325 42.2389C10.3977 42.6148 10.1932 42.6565 10.0576 42.831C9.82236 42.593 9.74876 42.17 9.30176 42.4029C9.39146 42.1786 9.08116 42.155 9.30076 41.8652ZM13.4685 40.9114C13.7522 41.2547 14.1284 41.118 14.5731 41.0967C14.4213 41.441 14.9609 41.4397 14.8969 41.741C14.4307 41.4389 14.3089 41.8208 14.0906 42.0122C13.8004 41.665 13.0716 41.5388 13.172 40.9929C13.3381 41.0963 13.3385 40.8772 13.4685 40.9114ZM15.1669 41.4722C15.4554 41.6905 15.4795 41.3812 15.7033 41.4699C15.6423 41.7045 15.3784 41.5377 15.3831 41.9015C15.2752 41.8659 15.1674 41.8303 15.0603 41.795C15.0959 41.6871 15.1315 41.5792 15.1669 41.4722ZM15.6474 40.0169C15.8155 40.1114 15.8878 40.2549 15.8633 40.447C15.7555 40.4114 15.6476 40.3758 15.5405 40.3405C15.5761 40.2326 15.6118 40.1247 15.6474 40.0169ZM18.6578 39.5781C18.7664 39.614 18.8735 39.6493 18.9821 39.6852C18.9643 40.0962 18.6243 39.8661 18.6069 40.2781C18.4999 40.2428 18.392 40.2072 18.2842 40.1716C18.3007 39.7592 18.6407 39.9894 18.6578 39.5781ZM18.7166 41.0303C18.5661 40.9269 18.1131 40.9758 18.2844 40.709C18.4364 40.813 18.8902 40.7643 18.7166 41.0303ZM20.4832 37.8509C20.4475 37.9588 20.4119 38.0666 20.3768 38.1729C20.2076 38.0789 20.1359 37.9365 20.1604 37.7443C20.2682 37.7799 20.3753 37.8153 20.4832 37.8509ZM20.4867 38.9269C20.3781 38.891 20.271 38.8557 20.1632 38.8201C20.1988 38.7122 20.2344 38.6043 20.27 38.4965C20.5689 38.5258 20.6411 38.6693 20.4867 38.9269ZM23.1202 37.4665C23.3901 37.4655 23.2039 37.6935 23.1747 37.8425C22.9474 37.6565 23.0265 38.0839 22.7977 37.8974C22.8592 37.6638 23.1234 37.8299 23.1202 37.4665ZM25.9129 35.5214C26.1336 35.231 25.8215 35.2077 25.9112 34.9834C26.019 35.019 26.1261 35.0543 26.2347 35.0902C26.0143 35.3797 26.3262 35.4038 26.2357 35.6279C26.1279 35.5923 26.02 35.5567 25.9129 35.5214ZM25.9099 34.4438C26.1337 34.5351 26.1578 34.2232 26.4484 34.4431C26.4513 34.8072 26.1879 34.6414 26.1269 34.8734C25.9579 34.7787 25.8854 34.636 25.9099 34.4438ZM25.32 35.1462C25.3823 34.8235 25.5714 34.755 25.8033 34.7666C25.6221 34.8533 25.5679 35.1933 25.32 35.1462ZM27.735 33.2557C27.7991 33.022 28.0599 33.1879 28.0588 32.8235C28.2277 32.9182 28.2992 33.0615 28.2745 33.2544C28.0488 33.1634 28.0266 33.475 27.735 33.2557ZM28.971 32.2293C29.1417 32.4867 29.3096 32.524 29.5097 32.2277C30.1561 32.6275 30.4457 32.3989 30.8287 32.8427C30.9287 32.8601 30.9458 32.7166 30.9911 32.6267C31.0019 32.5098 30.8114 32.4937 30.693 32.4399C30.691 32.076 30.9525 32.2421 31.0159 32.0082C31.3089 32.1968 31.3263 32.525 31.7984 32.6254C31.9153 32.6363 31.9312 32.4439 31.985 32.3282C32.2544 32.3495 31.9924 32.6392 32.3349 32.6231C32.6604 32.5113 32.9056 32.2386 33.277 32.2165C33.2612 32.3639 33.1641 32.3483 33.0607 32.3254C32.8763 32.5531 33.3037 32.4741 33.1167 32.7019C32.8887 32.5156 32.9677 32.943 32.7405 32.7571C32.554 32.9859 32.9804 32.9047 32.7939 33.1335C33.0242 33.3205 32.9429 32.8923 33.1716 33.0788C33.1363 33.1859 33.1007 33.2938 33.0651 33.4016C32.7165 33.2839 32.6021 33.0503 32.444 32.8386C32.1903 32.8432 32.3139 33.2091 32.3916 33.2677C32.3231 33.5328 32.1398 33.5737 31.9344 33.5657C31.97 33.4578 32.0053 33.3508 32.0409 33.2429C31.6498 32.9994 31.6014 33.4401 31.288 33.3523C31.2952 33.1466 31.2554 32.9653 30.9921 32.8966C30.809 32.8474 30.8436 33.2281 30.7508 33.3543C30.4724 33.2919 30.2496 33.2027 30.2384 33.0057C30.0874 33.1058 29.8695 33.0755 29.8361 33.4103C29.0814 33.3414 29.4764 32.6935 28.8644 32.552C28.9 32.4442 28.9353 32.3371 28.971 32.2293ZM31.7655 30.8221C32.0646 30.8506 32.1366 30.9949 31.9817 31.2514C31.8746 31.2161 31.7667 31.1805 31.6589 31.1449C31.6945 31.037 31.7299 30.9299 31.7655 30.8221ZM32.7379 32.2188C32.5476 31.9999 32.3104 31.8046 32.467 31.4117C32.7769 31.5704 32.6505 31.9481 32.7379 32.2188ZM33.1116 31.0871C33.076 31.195 33.0406 31.302 33.005 31.4099C32.8972 31.3743 32.7893 31.3387 32.6814 31.3031C32.7762 31.1341 32.9194 31.0627 33.1116 31.0871ZM33.8615 29.9002C33.7332 30.0945 33.5661 30.2066 33.2714 30.0651C33.3978 29.8711 33.5667 29.7587 33.8615 29.9002ZM34.5615 29.9536C34.5104 30.4759 34.1313 30.3481 34.0797 30.8694C33.7397 30.6392 33.7208 31.0482 33.3807 30.818C33.6098 30.5599 33.8436 30.3112 34.024 29.9539C34.3138 30.1735 34.3371 29.864 34.5615 29.9536ZM34.1359 31.7833C34.4586 31.8456 34.5273 32.0365 34.5142 32.2679C34.3524 32.2145 34.1914 32.1613 34.0288 32.1076C34.0647 31.999 34.1003 31.8912 34.1359 31.7833ZM34.9932 30.2739C34.9398 30.4356 34.8861 30.5982 34.8327 30.76C34.5386 30.7738 34.8566 30.4775 34.5625 30.4914C34.6578 30.3235 34.8015 30.2505 34.9932 30.2739ZM35.0489 31.1894C35.2178 31.2841 35.2903 31.4268 35.2659 31.619C34.925 31.3886 34.9061 31.7975 34.5661 31.5673C34.6478 31.2858 34.9672 31.4709 35.0489 31.1894ZM35.4215 29.5199C35.7164 29.5063 35.396 29.8019 35.6925 29.7888C35.2885 30.3506 36.0207 30.3409 35.9089 30.7556C35.7487 30.7027 35.5861 30.6491 35.4259 30.5961C35.4978 30.3573 35.2568 30.276 35.2347 30.0858C35.4136 29.7409 35.5405 29.892 35.4215 29.5199ZM36.5489 28.8173C36.9609 28.8347 36.7308 29.1747 37.1426 29.1928C36.985 29.5915 36.4583 29.2598 36.1755 29.41C36.1915 28.9993 36.5318 29.2286 36.5489 28.8173ZM33.4344 31.1937C33.6371 31.362 33.7439 31.5767 33.7597 31.8385C33.5586 31.6707 33.4502 31.4555 33.4344 31.1937ZM30.6981 34.0546C30.7338 33.9468 30.7691 33.8397 30.8052 33.7303C30.9742 33.8251 31.0464 33.9685 31.0209 34.1612C30.9139 34.1258 30.806 34.0902 30.6981 34.0546ZM29.8928 34.8635C29.9284 34.7557 29.964 34.6478 29.9994 34.5407C30.1686 34.6347 30.24 34.7779 30.2172 34.9706C30.1077 34.9345 30.0014 34.8994 29.8928 34.8635ZM29.1399 34.9729C28.8231 34.9532 29.1324 34.6176 29.1389 34.4352C29.4557 34.4548 29.1472 34.7907 29.1399 34.9729ZM38.866 29.4021C38.7434 29.6971 38.5782 29.9008 38.3295 29.9427C38.5263 29.4937 38.4671 29.3762 38.1133 29.5133C38.2479 29.2474 38.5133 29.2363 38.866 29.4021ZM41.4419 27.0265C41.4058 27.1359 41.371 27.2415 41.3351 27.3501C41.2273 27.3145 41.1194 27.2789 41.0123 27.2435C41.1071 27.0746 41.2498 27.0021 41.4419 27.0265ZM43.2116 24.9221C43.1757 25.0307 43.1404 25.1378 43.1047 25.2457C42.9356 25.1517 42.863 25.009 42.888 24.8153C42.9959 24.8509 43.1037 24.8865 43.2116 24.9221ZM43.4779 24.1155C43.4425 24.2226 43.4069 24.3305 43.3713 24.4383C43.2635 24.4027 43.1556 24.3671 43.0477 24.3315C43.1425 24.1625 43.2857 24.0911 43.4779 24.1155ZM45.039 23.7347C45.3553 23.7533 45.0473 24.0902 45.0392 24.2722C44.724 24.253 45.0317 23.9169 45.039 23.7347ZM46.9737 22.7605C46.6641 22.601 46.7897 22.223 46.7018 21.9539C47.0656 21.9492 46.8993 22.2141 47.1342 22.2743C47.0808 22.4361 47.0271 22.5987 46.9737 22.7605ZM48.1008 22.0561C47.969 22.4867 47.7319 22.3096 47.8874 22.7024C47.7803 22.6671 47.6725 22.6315 47.5646 22.5959C47.6406 22.2136 47.8086 22.009 48.1008 22.0561ZM51.4323 20.1094C51.5401 20.145 51.648 20.1806 51.7551 20.2159C51.7592 20.5814 51.4956 20.4137 51.4343 20.6492C51.1165 20.6274 51.4271 20.2931 51.4323 20.1094ZM52.5106 20.6448C52.3511 21.0437 51.7556 20.8471 51.8642 20.4314C52.0799 20.5026 52.2957 20.5738 52.5106 20.6448ZM52.8789 17.8991C52.9142 17.7921 52.9501 17.6834 52.9855 17.5764C53.1552 17.6714 53.2266 17.8146 53.2024 18.006C53.0954 17.9706 52.9875 17.935 52.8789 17.8991ZM54.7071 16.7094C55.006 16.7388 55.0772 16.8828 54.9228 17.1403C54.8157 17.105 54.7071 17.0691 54.6 17.0338C54.6356 16.9259 54.6715 16.8173 54.7071 16.7094ZM56.959 14.2286C57.0668 14.2642 57.1747 14.2998 57.2825 14.3354C57.2472 14.4425 57.2116 14.5503 57.176 14.6582C57.007 14.5634 56.9348 14.4199 56.959 14.2286ZM57.6646 15.8952C57.4432 16.1852 57.7556 16.2078 57.6646 16.4334C57.432 16.3714 57.5973 16.107 57.2337 16.1109C57.329 15.943 57.4722 15.8715 57.6646 15.8952ZM58.4656 13.4692C58.6259 13.5221 58.7884 13.5758 58.9486 13.6287C58.6048 14.0716 59.4003 13.9408 59.0588 14.3845C58.6577 14.3838 58.8877 14.0653 58.5464 14.0359C58.24 14.1289 58.4039 14.5514 58.4142 14.7091C58.0378 14.6732 57.9956 14.4703 57.8205 14.3336C58.0268 14.0316 58.3703 13.9968 58.4656 13.4692ZM59.5418 14.0057C59.7691 14.1154 59.6102 14.4209 59.7044 14.5976C59.3593 14.4456 59.3617 14.9846 59.0606 14.9225C59.1863 14.5471 59.4895 14.5293 59.5418 14.0057ZM60.0249 13.6269C60.1105 13.8086 60.4516 13.8623 60.4039 14.1092C60.2421 14.0558 60.0804 14.0024 59.9186 13.9489C59.9537 13.8426 59.989 13.7356 60.0249 13.6269ZM59.2778 15.8896C59.1129 15.6592 58.7341 15.5358 58.7922 15.1918C59.0611 15.2806 59.33 15.3694 59.5996 15.4584C59.5381 15.6921 59.275 15.5254 59.2778 15.8896ZM58.3102 16.1083C58.405 15.9394 58.5482 15.868 58.7406 15.8916C58.9325 16.0191 59.0454 16.1864 58.9031 16.4835C58.5256 16.4482 58.4847 16.244 58.3102 16.1083ZM61.2062 12.7636C61.5248 12.783 61.2139 13.1181 61.209 13.3011C60.8906 13.2809 61.2012 12.9466 61.2062 12.7636ZM62.2761 10.0693C62.6332 10.1586 62.7423 10.3741 62.6001 10.7154C62.4881 10.5008 62.3795 10.2863 62.2761 10.0693ZM61.7932 10.9856C61.5233 10.9866 61.7098 10.7578 61.7396 10.6099C61.8467 10.6452 61.9545 10.6808 62.0624 10.7164C62.076 11.0113 61.7791 10.6897 61.7932 10.9856ZM63.2986 10.2275C63.4065 10.2631 63.5136 10.2985 63.6214 10.3341C63.6258 10.6987 63.362 10.5319 63.3002 10.7663C62.9826 10.7464 63.2924 10.4092 63.2986 10.2275ZM64.5372 10.2776C64.3162 10.5687 64.6276 10.5918 64.5371 10.8159C64.3442 10.8016 64.4733 10.6232 64.349 10.5743C64.2399 10.6267 64.132 10.6804 64.0273 10.7377C63.9303 10.9423 64.5041 10.811 64.2701 11.0865C63.8583 11.0684 64.0884 10.7284 63.6766 10.7103C63.7704 10.1848 64.0573 10.0403 64.5372 10.2776ZM64.6409 8.87906C64.6053 8.98696 64.57 9.09396 64.5346 9.20106C64.3639 9.10656 64.2929 8.96436 64.3166 8.77196C64.4237 8.80736 64.5315 8.84296 64.6409 8.87906ZM65.5533 8.82236C65.5177 8.93016 65.4829 9.03566 65.4467 9.14516C65.1256 9.08326 65.0569 8.89246 65.0703 8.66286C65.2305 8.71576 65.3931 8.76946 65.5533 8.82236ZM65.1304 10.652C64.7644 10.6577 64.9323 10.3934 64.6974 10.3305C64.8783 10.2446 64.9322 9.90526 65.1802 9.95246C65.1268 10.1143 65.0736 10.2753 65.0202 10.4371C65.1678 10.4546 65.1525 10.551 65.1304 10.652ZM67.3784 6.55506C67.413 6.45036 67.4494 6.34016 67.485 6.23226C67.654 6.32706 67.7267 6.47156 67.7028 6.66216C67.5942 6.62626 67.4863 6.59066 67.3784 6.55506ZM68.1886 7.36176C68.2009 7.65526 67.9049 7.33646 67.9182 7.63216C67.7495 7.53656 67.6783 7.39256 67.7025 7.20116C67.8651 7.25486 68.0253 7.30776 68.1886 7.36176ZM69.683 2.83566C69.898 2.90666 70.1137 2.97786 70.3286 3.04886C70.1919 3.22386 69.9875 3.26556 69.9524 3.64226C69.6427 3.48546 69.7676 3.10716 69.683 2.83566ZM68.1253 4.29326C68.2928 4.09286 68.5091 3.98396 68.7696 3.96946C68.6017 4.17056 68.3865 4.27896 68.1253 4.29326ZM66.3086 8.71116C66.2727 8.81976 66.2371 8.92766 66.2012 9.03626C66.0934 9.00066 65.9855 8.96506 65.8769 8.92916C65.9727 8.75976 66.1159 8.68826 66.3086 8.71116ZM0.6221 45.8992C0.43453 45.9317 0.24511 45.9541 0.0556999 45.9817C0.11026 46.3127 0.17496 46.6391 0.70464 46.7334C0.75714 46.6164 0.77247 46.4256 0.89119 46.4362C1.00639 46.4915 0.90092 46.6561 0.86485 46.7863C1.41435 46.8048 1.79869 46.4992 2.37201 46.5662C2.46483 46.44 2.43121 46.0588 2.61329 46.1085C2.72829 46.1855 2.59742 46.385 2.8824 46.3777C3.15113 46.2384 3.40679 46.0784 3.55278 45.7019C3.43784 45.6483 3.24545 45.6325 3.25683 45.514C3.92493 45.4122 2.87988 44.5765 3.60314 44.4652C3.27992 45.0319 3.90562 45.1215 3.76954 45.594C4.05777 45.8132 4.08292 45.5034 4.30571 45.5925C3.8648 45.8673 4.24008 46.1273 3.85208 46.4283C3.99261 46.6038 3.96783 46.8626 4.20349 46.9915C4.45038 46.8607 4.57371 46.4793 4.68448 46.0756C4.56955 46.022 4.37716 46.0062 4.38853 45.8877C4.41511 45.8072 4.44195 45.7259 4.46827 45.6462C4.82562 45.7347 4.93477 45.9502 4.79285 46.2908C5.05934 46.4628 5.01042 46.0098 5.11463 45.8596C4.56599 45.6863 4.66686 45.1865 4.57228 44.7852C4.93119 44.8742 5.03878 45.0891 4.89789 45.4292C5.18769 45.6488 5.21127 45.3385 5.43563 45.4282C5.38688 45.7675 5.75839 45.8945 5.70704 46.2338C5.59918 46.1982 5.49211 46.1628 5.38426 46.1272C5.35982 46.3193 5.43206 46.4628 5.60021 46.5573C5.82612 46.6475 5.8484 46.3359 6.13976 46.5561C6.23444 46.2614 5.90184 46.1819 5.78704 45.9915C6.59238 46.0069 6.137 44.9447 6.29386 44.4565C5.74469 44.4633 5.97083 44.0803 5.75512 43.9198C5.53549 44.2096 5.84581 44.2331 5.75613 44.4575C5.48036 44.2243 5.61187 44.7973 5.40779 44.7013C5.1815 44.2946 4.6053 44.6799 4.22295 44.2208C4.59843 44.2781 4.70859 44.0258 4.57 43.7079C4.91111 43.759 5.0368 43.3862 5.37713 43.437C5.7889 43.807 5.9301 43.6707 6.61746 44.0251C6.60686 43.8681 6.44221 43.4454 6.74803 43.3514C6.69947 43.7583 7.14837 43.9135 7.47798 44.1306C7.5708 44.0044 7.53692 43.624 7.71951 43.6721C7.75127 43.8568 7.77472 44.0483 7.80077 44.2372C8.02199 44.2314 8.17802 44.0922 8.50056 44.2888C8.40693 44.4148 8.44159 44.7955 8.25848 44.7463C7.91691 44.7176 8.14844 44.3997 7.74761 44.3982C7.712 44.5061 7.67639 44.6139 7.64077 44.7218C7.76701 44.8146 8.14744 44.7807 8.0985 44.9631C7.95072 44.9827 7.89402 45.1807 7.69598 45.098C7.55851 44.8108 7.00673 44.6286 6.72684 44.778C6.63781 45.0476 6.54852 45.3181 6.46001 45.5861C6.74108 45.6694 6.55485 45.9867 6.83774 46.0697C7.02247 45.7701 6.62662 45.4175 7.02329 45.2347C7.36733 45.2192 7.1045 45.5086 7.37369 45.5307C7.71655 45.1013 9.03706 45.6197 8.71836 44.7187C8.98356 45.3515 9.47096 44.5078 9.68746 45.0387C10.0568 44.3823 9.41136 44.2342 9.17196 43.883C9.25516 43.7805 9.21496 43.4352 9.38666 43.5058C9.46796 43.5326 9.54846 43.5592 9.62816 43.5855C9.47336 43.9782 9.70846 44.1745 9.90086 44.3924C9.88626 44.098 10.1816 44.4165 10.1682 44.1235C10.2584 43.8976 9.94626 43.8743 10.1677 43.5842C10.2748 43.6196 10.3827 43.6552 10.4905 43.6908C10.3877 43.493 10.4598 42.8572 10.73 42.6951C11.019 42.7281 10.9397 42.9498 11.053 43.0713C10.9314 43.1378 10.7745 43.1405 10.7589 43.4214C11.0796 43.256 11.4068 43.1023 11.7789 43.0414C11.8706 42.816 11.5582 42.7934 11.7794 42.5042C11.8857 42.5393 11.9944 42.5751 12.1022 42.6107C11.7531 43.0329 12.4134 42.9467 12.4521 43.1735C12.2776 43.3161 12.0628 43.3813 11.7255 43.2032C11.6898 43.311 11.6542 43.4189 11.6189 43.526C12.283 43.6854 12.5784 43.1112 13.1797 43.1459C13.2331 42.9842 13.2863 42.8231 13.3402 42.6598C12.9541 43.0602 12.9237 42.5405 12.425 42.7173C12.4604 42.6102 12.4965 42.5008 12.5321 42.393C13.202 42.6532 13.511 42.1978 14.0372 42.174C14.1806 42.3721 14.4054 42.5287 14.7935 42.6031C14.885 42.4756 14.8527 42.0956 15.0334 42.1441C15.4595 42.2215 15.1536 42.6674 15.6542 42.7079C15.6818 42.4093 15.8263 42.3365 16.0839 42.4909C16.2538 42.1362 16.2637 41.8621 16.1886 41.6301C16.5486 41.8105 16.646 41.4656 17.051 41.7354C17.1509 41.459 16.7862 41.4192 16.8877 41.1432C17.0372 41.1735 17.2644 41.3595 17.2644 41.0891C16.9782 40.8455 16.7227 41.3358 16.5907 40.9559C16.901 40.8113 16.9711 40.1948 17.3687 40.2273C16.8547 39.9908 16.8271 39.5128 16.6666 39.0983C16.7614 38.9294 16.9046 38.8579 17.096 38.8821C16.8714 39.4442 17.0517 39.8036 17.6378 39.9581C17.3692 40.4068 17.9619 40.4231 17.6948 40.8723C18.1178 41.2634 18.8668 41.4257 19.2543 41.0293C19.0905 40.7984 18.7122 40.6735 18.7687 40.3315C18.8766 40.3672 18.9844 40.4028 19.0915 40.4381C19.1642 40.281 18.8396 39.9909 19.1707 39.9252C19.2382 40.0489 19.2418 40.206 19.5214 40.2204C19.766 39.8287 19.3239 39.7816 19.412 39.4674C19.7347 39.5297 19.8019 39.7201 19.7895 39.9518C20.0857 39.845 20.2638 39.9038 20.4359 40.1652C20.5476 39.9369 20.8495 40.0963 21.0283 40.0011C21.0195 39.8439 20.8546 39.4219 21.1602 39.3287C21.3493 39.3911 21.5369 39.4531 21.726 39.5155C21.8098 39.2329 22.1261 39.4196 22.2098 39.137C21.772 39.0193 21.3656 38.8877 21.5351 38.4661C21.7541 38.4092 21.8878 38.1855 22.1531 38.222C22.4477 38.2092 22.1284 38.5042 22.423 38.4914C22.476 38.2836 22.6691 38.3551 22.7716 38.2468C22.7844 38.4443 23.0074 38.5327 23.284 38.5954C23.5083 38.3704 23.7307 38.1457 23.9557 37.9209C24.0171 38.092 24.2116 38.1961 24.0364 38.485C23.9309 38.4502 23.8215 38.414 23.7137 38.3784C23.678 38.4863 23.6424 38.5941 23.6068 38.702C23.8736 38.6081 24.2555 38.7402 24.5226 38.6455C24.5464 38.1611 24.8818 38.29 24.9509 37.8916C25.0588 37.9272 25.1659 37.9625 25.2745 37.9984C25.3455 37.7835 25.4172 37.5662 25.4877 37.3528C25.6378 37.4284 25.6832 37.2961 25.7834 37.271C25.8501 37.3945 25.8542 37.5501 26.134 37.5662C26.2278 37.0381 26.5144 36.8944 26.9943 37.1317C27.0653 36.9168 27.1365 36.7011 27.2077 36.4854C27.6789 36.3523 28.201 36.3201 28.4966 35.837C28.1722 35.6406 28.0183 35.7788 27.7968 35.7854C28.1361 35.3904 27.4985 35.4867 27.634 35.1942C27.9981 35.1888 27.8323 35.4521 28.0659 35.5137C28.1779 35.3374 28.1576 34.8947 28.3604 34.8949C28.369 35.2731 28.5848 35.5437 29.0885 35.6745C29.2905 35.4933 29.4477 35.2271 29.7057 35.1597C29.8592 35.33 29.7664 35.6244 30.1647 35.6701C30.3915 35.3168 30.6397 35.0061 30.7533 34.4308C30.905 34.5069 30.9494 34.3751 31.048 34.3496C31.1744 34.3974 31.0445 34.5755 31.2379 34.5908C31.3519 34.4135 31.3306 33.9714 31.5321 33.9703C31.8769 33.955 31.6133 34.2441 31.8841 34.2668C32.1659 33.8909 32.5472 33.7126 32.9296 33.5363C33.0554 33.5857 32.9248 33.7635 33.1195 33.7776C33.3161 33.6362 33.4732 33.4098 33.5479 33.0236C34.0788 32.9172 34.5718 32.7368 35.1082 32.6426C35.0421 32.4699 35.0088 31.9328 35.2937 31.8076C35.637 31.7918 35.3752 32.0807 35.6444 32.1028C35.8078 31.8022 36.3625 32.2801 36.4507 31.8316C36.3292 31.5774 36.4567 31.1991 36.6094 30.8075C36.2876 30.7454 36.2194 30.5556 36.2315 30.3247C36.3917 30.3776 36.5542 30.4313 36.716 30.4847C36.6223 30.2172 36.7537 29.8376 36.6585 29.5695C36.9352 29.6713 36.9758 29.3068 37.2512 29.4072C37.2653 29.7005 36.969 29.3825 36.9829 29.6766C37.3119 29.6171 37.24 29.5934 37.4674 29.8366C37.5215 29.7201 37.5368 29.5293 37.6537 29.5401C37.7573 29.6229 38.1039 29.5839 38.033 29.7564C37.5711 30.221 36.9649 30.4005 36.7717 31.4002C37.1485 31.2568 37.2608 30.5857 37.847 30.8581C37.9534 30.4018 38.3554 30.5285 38.5178 30.1834C38.707 30.2459 38.8946 30.3078 39.0821 30.3697C39.0852 29.9694 39.4031 30.2009 39.4323 29.8578C39.3546 29.605 39.2365 29.3745 39.3487 29.0241C39.0916 28.7529 38.8871 29.2461 38.8366 28.9451C39.0826 28.8981 39.201 28.5974 39.5361 28.7271C39.5945 28.9466 39.8166 29.0798 39.7804 29.3469C40.1334 29.3569 40.2619 28.9781 40.4805 29.3978C40.5205 29.3027 40.5674 29.2133 40.6949 29.2892C40.6488 28.7513 40.4869 28.2705 40.5019 27.7025C40.7099 27.5346 41.0169 27.5657 41.2814 27.5127C41.228 27.6744 41.1751 27.8347 41.1214 27.9972C41.0136 27.9616 40.9057 27.926 40.7986 27.8906C40.7118 28.2035 41.1526 28.252 40.9083 28.6428C41.0154 28.6782 41.124 28.714 41.2311 28.7494C41.2664 28.6423 41.302 28.5344 41.3376 28.4266C41.2217 28.3736 41.0303 28.3572 41.0417 28.2387C41.3507 28.1561 41.6332 27.9356 41.4432 27.5661C41.6727 27.7086 41.6338 27.3196 41.901 27.5369C41.9577 27.6432 42.0106 27.7508 42.064 27.8595C42.0147 27.9853 41.8365 27.8554 41.8207 28.0478C42.3623 28.4078 42.4215 27.8111 42.8977 28.0463C42.9338 27.9369 42.9692 27.8298 43.0048 27.722C42.7836 27.7278 42.6276 27.867 42.3043 27.6701C42.2529 27.4503 42.2883 27.1855 42.1673 26.9982C42.4275 27.0659 42.3911 26.5486 42.5972 26.5126C42.5238 26.8871 42.9221 27.0221 42.7354 27.4536C43.1297 27.7927 43.0334 27.155 43.3266 27.2908C43.4157 27.0654 43.1059 27.0429 43.3248 26.7528C43.0347 26.534 43.0114 26.8435 42.7871 26.7538C42.9733 26.5258 42.5454 26.6064 42.7311 26.3774C43.3494 26.6994 43.6437 26.4013 43.9425 26.7774C44.073 26.8126 44.0763 26.5927 44.2387 26.6966C43.9907 26.1614 44.5685 25.7818 44.9354 25.6707C44.7592 25.5588 44.3165 25.579 44.3162 25.3778C44.6498 24.9974 44.9085 25.0013 44.8256 24.3811C45.3532 24.4712 45.3472 24.9355 45.7947 24.7011C45.7334 25.0232 45.5428 25.0912 45.3119 25.0791C45.3714 25.4081 45.3954 25.3355 45.1522 25.5628C45.442 25.7825 45.4653 25.4729 45.6899 25.5618C45.7796 25.3375 45.4677 25.3134 45.6881 25.0239C45.796 25.0595 45.9039 25.0951 46.0109 25.1304C46.1542 24.9012 45.766 24.9403 45.9833 24.6732C46.0896 24.6164 46.1965 24.5633 46.3051 24.5099C46.4217 24.5874 46.2911 24.7887 46.5742 24.779C46.8882 24.6443 47.0518 24.2095 47.6236 24.5881C47.6951 24.3716 47.7661 24.1567 47.8373 23.941C47.5145 23.7451 47.3587 23.8835 47.1378 23.8886C47.6038 23.6533 47.0384 23.2577 47.1347 22.8136C47.3635 23.0001 47.2837 22.5724 47.5109 22.7584C47.4348 22.9101 47.5682 22.955 47.5932 23.0552C47.5444 23.1795 47.3647 23.049 47.3509 23.243C47.7528 23.2439 47.5205 23.5616 47.8634 23.5916C48.1128 23.1487 48.9043 23.7862 49.128 23.2923C49.1522 23.101 49.0799 22.9575 48.9115 22.8612C48.5841 22.9732 48.3386 22.6486 48.0771 22.6766C48.2708 22.7068 48.291 22.3884 48.4522 22.3515C48.8232 22.3674 48.7629 22.5997 48.9644 22.7009C49.0185 22.5844 49.0343 22.392 49.1512 22.4029C49.2924 22.5345 49.2127 22.776 49.449 22.8609C49.5439 22.5577 49.9066 22.7875 49.9586 22.4017C50.0559 22.1963 49.4803 22.3278 49.7161 22.052C50.1666 22.323 50.3617 22.0892 50.7384 22.211C50.7782 21.7544 51.1717 22.0013 51.3837 21.8867C51.4721 21.661 51.1639 21.639 51.3812 21.3484C50.9895 21.1038 50.9434 21.5454 50.6282 21.4578C50.5436 21.2756 50.2038 21.2232 50.251 20.9753C50.6633 20.9918 50.4332 21.3319 50.8452 21.3492C50.9182 20.9104 51.5802 20.9452 51.785 21.2122C51.7558 21.5553 51.437 21.3235 51.4371 21.7249C51.778 21.9553 51.7974 21.5448 52.1372 21.7757C52.2902 21.3885 52.5993 21.3684 52.4035 20.9692C52.6278 21.0588 52.6519 20.747 52.9417 20.9666C53.1541 20.4048 53.7298 20.5698 53.8531 19.8339C53.7726 19.8073 53.6929 19.781 53.6116 19.7541C53.4116 19.6248 53.5435 20.1546 53.343 20.0243C52.9987 19.8438 53.149 19.7193 52.7772 19.8375C52.9636 19.6087 52.5368 19.6887 52.7222 19.4605C52.884 19.5139 53.0458 19.5673 53.2076 19.6207C53.3923 19.3211 52.9975 18.968 53.3939 18.786C53.5564 18.9948 53.5426 19.2936 53.8 19.4566C53.8529 19.2964 53.9058 19.1362 53.9597 18.9728C53.5199 18.9004 53.6901 18.5241 53.661 18.2475C53.809 18.227 53.8654 18.0299 54.0637 18.1118C54.3589 18.0974 54.0401 18.3935 54.3334 18.3794C54.4169 18.0975 54.7344 18.283 54.8167 18.0024C55.0032 17.7736 54.576 17.8545 54.7625 17.6257C55.0388 17.8599 54.9055 17.2846 55.1111 17.3811C55.2025 17.5612 55.2915 17.7405 55.3825 17.9188C55.0047 18.4095 55.2831 18.5612 54.8729 18.9164C55.7483 19.2158 55.4855 17.9641 55.516 17.5148C55.7238 17.5678 55.6512 17.7614 55.7585 17.8644C55.6963 18.0528 55.6341 18.2411 55.5717 18.4303C55.8633 18.6496 55.8853 18.3388 56.1094 18.4292C56.1041 18.2065 55.9662 18.0517 56.1623 17.7282C56.3233 17.7813 56.4851 17.8347 56.6469 17.8882C56.8735 17.4828 56.5064 17.3737 56.3494 17.1615C56.6068 17.23 56.572 16.7132 56.7788 16.6775C56.8585 16.7038 56.9398 16.7307 57.0203 16.7572C56.8775 17.0533 56.9904 17.2206 57.1846 17.3489C57.2459 17.0268 57.4352 16.9575 57.6674 16.9709C57.8539 16.7421 57.4242 16.823 57.6114 16.5944C57.8327 16.5886 57.9895 16.4497 58.3117 16.6471C58.2586 16.8081 58.2052 16.9699 58.152 17.1309C58.9486 17.1096 59.1236 15.8525 59.9792 15.9417C60.0124 15.5653 60.2169 15.5236 60.3525 15.349C59.9171 15.2529 59.6841 15.0581 59.8662 14.6511C60.4457 14.9984 60.4662 14.2355 61.1047 14.7012C61.4011 14.2365 61.0244 14.1121 61.049 13.7857C61.2157 13.4489 61.6496 13.6416 61.7736 13.2188C61.7517 13.0278 61.5104 12.9473 61.5824 12.7084C61.6902 12.744 61.7981 12.7796 61.9067 12.8155C61.8783 12.9647 61.692 13.1927 61.9619 13.1917C62.0179 12.5601 62.9036 13.1724 62.9842 13.3507C63.0437 12.7558 63.3874 12.7228 63.6273 12.4873C63.5678 12.1583 63.5438 12.2309 63.7875 12.002C63.3821 11.7754 63.2741 12.1419 63.0614 12.3005C62.8085 12.1581 62.2773 12.1552 62.2004 11.9261C62.2441 11.8356 62.2625 11.6909 62.3601 11.7101C62.4357 12.1191 62.5808 11.685 62.9267 11.8972C62.8601 11.7235 62.8287 11.1888 63.112 11.063C63.0407 11.6861 63.481 11.2819 63.9475 11.5174C64.0183 10.9644 64.3638 11.3567 64.486 11.5167C64.5751 11.247 64.6643 10.9766 64.7531 10.7078C64.9133 10.7607 65.0767 10.8146 65.2369 10.8675C65.3 10.5451 65.4903 10.4779 65.7215 10.4892C65.9059 10.2615 65.4798 10.3418 65.6663 10.113C66.0721 10.2964 66.269 10.0624 66.364 9.62736C66.2467 9.57306 66.0567 9.55796 66.0681 9.43956C66.3536 9.42806 66.4577 9.05246 66.7392 9.03446C66.7345 9.21666 66.4237 9.55176 66.7418 9.57276C66.8353 9.04536 67.1767 9.01166 67.3848 8.70936C67.2778 8.67406 67.1683 8.63786 67.062 8.60276C67.0075 8.71826 66.9911 8.90956 66.8744 8.89796C66.5526 8.67816 67.0183 8.06046 66.5752 7.90376C66.5208 8.02106 66.5055 8.21186 66.387 8.20046C66.1064 7.82966 65.7388 8.05056 65.228 7.63926C65.0097 7.93036 65.3189 7.95186 65.2308 8.17676C64.7981 8.03556 64.2573 7.94886 64.3675 7.53366C64.8167 7.80076 64.8327 7.20886 65.2817 7.47666C65.3763 7.35016 65.3406 6.97006 65.5229 7.01896C65.634 7.16566 65.3848 7.49256 65.8202 7.47596C65.8785 7.09996 66.0571 6.96566 66.2748 6.91006C66.5603 7.14826 66.5673 7.52586 67.0045 7.68756C66.8626 8.02816 66.9725 8.24386 67.3288 8.33286C67.4387 7.43566 68.3129 8.05366 68.5383 7.38696C68.5166 7.19526 68.2751 7.11546 68.3492 6.87556C68.6887 7.10726 68.7078 6.69756 69.0479 6.92776C68.8691 6.56876 69.2299 5.93816 69.3653 5.42036C69.6559 5.64026 69.6808 5.32856 69.9046 5.41986C69.4774 4.83156 70.1287 4.14776 70.5995 3.85596C70.7 3.58056 70.3352 3.54076 70.4367 3.26476C70.813 3.41156 70.9725 3.66876 71.1104 3.93626C70.6335 4.10206 70.3192 4.59206 70.0114 5.09626C70.1264 5.14986 70.3188 5.16566 70.3076 5.28336C70.1253 5.58896 69.8756 5.76216 69.4742 5.63656C69.4388 5.74366 69.4035 5.85076 69.3679 5.95856C69.4757 5.99416 69.5836 6.02986 69.6914 6.06546C69.781 5.70756 69.9944 5.59946 70.3352 5.74056C70.4808 5.22876 70.941 5.33386 71.0322 4.71646C70.9167 4.66186 70.7241 4.64686 70.7355 4.52836C70.7801 4.39316 70.8242 4.25956 70.8686 4.12506C71.0304 4.17846 71.1922 4.23196 71.3532 4.28506C71.3888 4.17726 71.4247 4.06856 71.46 3.96156C70.9763 3.80956 70.8007 3.21766 71.2428 2.99186C70.948 3.00546 71.268 2.71066 70.9732 2.72426C70.8176 2.65466 70.5273 2.97746 70.4615 2.64636C70.7972 2.62196 70.783 2.12146 70.702 1.91786C70.8519 1.99426 70.8981 1.86216 70.9982 1.83716C70.9315 2.07336 71.4277 2.02486 71.2947 2.29386C71.6757 2.09286 71.6702 2.55566 72.2638 2.61386C72.6233 2.07376 72.0282 2.01516 72.2603 1.53786C71.9086 1.71296 71.1901 1.39516 71.3985 0.895363C71.2367 0.841963 71.0749 0.788563 70.9123 0.734863C70.7544 1.22096 70.2081 0.940962 70.1096 1.54376C70.3994 1.76336 70.4222 1.45276 70.646 1.54146C70.4698 1.99376 70.4161 2.68676 69.9493 2.56476C70.0025 2.40376 70.0556 2.24276 70.1091 2.08096C69.8208 1.86186 69.7962 2.17266 69.5726 2.08326C69.4296 2.31166 69.8183 2.27356 69.5994 2.54026C69.3217 2.71206 68.9268 2.96296 68.7123 2.51516C68.6712 2.61076 68.6246 2.69946 68.4977 2.62456C68.408 2.84896 68.7173 2.87306 68.4987 3.16226C68.7144 3.23356 68.9293 3.30446 69.1458 3.37596C68.9591 3.60556 69.3857 3.52366 69.1992 3.75246C68.8764 3.64586 68.5536 3.53926 68.2308 3.43266C68.1599 3.64766 68.0889 3.86256 68.0174 4.07906C67.9096 4.04346 67.8017 4.00786 67.6938 3.97226C67.5076 4.20026 67.9335 4.12066 67.7488 4.34926C67.4347 4.26106 67.3883 4.70346 66.994 4.45886C66.9589 4.91966 66.5744 4.69556 66.4581 4.99786C66.9469 5.17916 67.3734 4.67766 67.644 5.20996C67.715 4.99506 67.7862 4.77936 67.8574 4.56366C68.2499 4.63516 68.6281 4.47396 68.8258 4.88336C68.96 4.74736 69.0918 4.60806 69.2288 4.47906C69.3199 4.65736 69.4105 4.83716 69.4987 5.01626C69.173 5.51456 68.7008 5.79986 68.1823 5.21006C67.9505 5.54956 68.3613 5.56816 68.1296 5.90776C68.2876 5.89916 68.7082 5.73556 68.8012 6.04196C68.4677 6.07826 68.576 6.38796 68.6152 6.60546C68.5081 6.57006 68.4002 6.53446 68.2924 6.49886C68.6233 5.97446 67.6302 6.11556 67.86 5.64016C67.54 5.80836 66.9856 5.51096 66.5141 5.37426C66.4894 5.56726 66.5619 5.70996 66.7308 5.80476C66.9581 5.99066 66.878 5.56376 67.107 5.74946C67.0892 6.16056 66.7497 5.93146 66.7313 6.34136C67.0895 6.43276 67.1981 6.64716 67.0569 6.98806C67.3314 7.22256 67.1996 6.64776 67.4063 6.74366C67.497 6.78926 67.6405 6.80626 67.6223 6.90606C67.5251 7.16086 67.3243 7.20726 67.1921 7.39236C66.8931 6.93566 65.8977 6.82896 66.3007 6.02066C66.1264 5.88426 66.0842 5.68136 65.7085 5.64576C65.6474 5.92286 66.099 5.94366 66.0579 6.21006C66.0167 6.57096 65.8154 6.61626 65.6293 6.69696C65.4886 6.56386 65.5681 6.32306 65.332 6.23996C65.2697 6.47336 65.0071 6.30776 65.01 6.67186C65.127 6.72436 65.3191 6.74106 65.3083 6.85796C65.2004 6.91416 65.0939 6.96916 64.985 7.02076C64.8601 6.97086 64.989 6.79326 64.7953 6.77866C64.7524 6.87466 64.7086 6.96246 64.5809 6.88736C64.3944 7.11616 64.8215 7.03526 64.6353 7.26326C64.2744 7.12766 64.2324 7.62516 64.0194 7.77676C63.8935 7.72736 64.0224 7.54976 63.8295 7.53546C63.7585 7.75036 63.6873 7.96616 63.6158 8.18266C63.7418 8.27626 64.1222 8.23976 64.0741 8.42236C64.029 8.51406 64.0117 8.65576 63.9125 8.63856C63.8442 8.51456 63.8435 8.35926 63.5632 8.34206C63.5181 8.78826 63.3019 8.89716 62.9168 8.66686C62.8453 8.88336 62.7743 9.09836 62.7031 9.31406C62.9788 9.41636 63.0207 9.05046 63.2961 9.15096C63.023 9.48986 63.4342 9.48606 63.4852 9.66236C63.4589 9.74216 63.432 9.82336 63.4055 9.90386C63.0182 9.82976 62.7934 9.67326 62.65 9.47506C62.4693 9.65206 62.2057 9.66296 61.8978 9.58466C62.0488 9.87286 61.8563 10.6345 61.4153 10.5028C61.2802 10.9748 61.9033 11.0644 61.5801 11.6311C61.9197 11.7077 61.9368 11.9474 62.147 12.0879C62.0648 12.1899 62.1032 12.5354 61.932 12.4659C61.8744 12.2466 61.6515 12.1106 61.689 11.8474C61.4678 11.8532 61.3115 11.9906 60.9884 11.7955C60.9544 12.1717 60.7499 12.2134 60.6132 12.3884C60.7211 12.424 60.8289 12.4596 60.9368 12.4953C61.0309 12.3677 60.995 11.9883 61.177 12.0354C61.3493 12.2986 60.9845 12.6263 60.8029 12.6305C60.463 12.4472 60.2463 12.5074 60.0221 12.5512C59.9497 12.7076 60.2745 12.9969 59.9444 13.0621C59.9306 12.8651 59.707 12.7783 59.4309 12.714C59.2953 13.0749 59.792 13.1167 59.9436 13.3323C59.6852 13.2643 59.7203 13.7803 59.5145 13.8155C59.4348 13.7892 59.3543 13.7626 59.273 13.7358C59.3256 13.5763 59.3793 13.4138 59.4327 13.252C59.1566 13.1513 59.1154 13.5173 58.8411 13.4164C58.8919 12.8949 59.2715 13.0211 59.3218 12.4985C58.9265 12.6064 58.6005 12.8507 58.3549 13.2558C57.7205 13.0247 57.7878 13.5271 57.7653 13.9574C57.3161 13.6877 57.1933 14.0676 56.7428 13.7992C56.6684 14.1846 56.5128 14.4115 56.3136 14.5529C56.4016 14.7562 56.7441 14.8294 56.881 15.0081C56.7544 15.6068 56.2577 15.4653 56.1569 16.1142C56.3131 16.1848 56.6026 15.8618 56.6691 16.1932C56.5373 16.3351 56.2948 16.2559 56.2122 16.4904C56.3811 16.5852 56.4533 16.7287 56.4291 16.92C56.1065 16.8577 56.0372 16.6684 56.0504 16.437C55.7281 16.2422 55.5713 16.3785 55.3509 16.3846C55.7372 15.9522 55.5675 15.852 55.724 15.2544C55.563 15.2013 55.4004 15.1476 55.2402 15.0947C55.2111 15.3928 55.0674 15.4658 54.8093 15.3104C55.2022 15.7478 54.7574 15.8194 54.84 16.3069C54.4425 16.3846 54.4827 16.6067 54.4103 16.7917C54.3428 16.668 54.3403 16.5129 54.0599 16.4957C53.8148 16.8889 54.2574 16.9371 54.169 17.2495C53.8994 17.1604 53.6305 17.0717 53.3609 16.9826C53.3965 16.8748 53.4319 16.7677 53.4675 16.6598C53.0633 16.3903 52.9675 16.7357 52.6062 16.554C52.7595 16.8378 52.458 17.3493 52.6085 17.6313C52.3135 17.6189 52.2267 18.0314 51.992 18.1437C51.9016 18.1 51.7579 18.0811 51.7758 17.9822C51.8063 17.6403 52.124 17.8727 52.1255 17.4718C51.7299 17.5778 51.4031 17.8219 51.1578 18.2289C51.7134 18.1947 51.1558 18.7231 51.6179 18.7361C51.8174 18.867 51.6847 18.3369 51.8847 18.4688C51.9652 18.4954 52.0465 18.5223 52.1277 18.5491C52.0115 18.9432 52.1055 19.2308 52.3721 19.4341C52.2684 19.5854 52.2969 19.9978 52.1045 19.9742C52.0722 19.7884 52.0495 19.5972 52.0219 19.4078C51.7473 19.3076 51.7072 19.6731 51.4321 19.5719C51.5739 19.2763 51.4604 19.108 51.2693 18.9807C51.2139 19.0959 51.1981 19.2883 51.0796 19.277C50.8959 19.0169 50.91 18.9609 51.1591 18.7658C51.0512 18.7302 50.9442 18.6948 50.8363 18.6592C50.7435 18.7855 50.7774 19.1659 50.5958 19.1172C50.48 19.04 50.6101 18.8402 50.3251 18.8476C50.2221 18.9548 50.0288 18.8841 49.9768 19.0914C49.7903 19.3202 50.2172 19.2401 50.0317 19.4684C50.3249 19.208 51.6114 19.2939 51.2721 20.0565C50.6753 19.9973 50.7211 19.6145 50.1927 19.5215C50.1232 19.6771 50.446 19.9675 50.1132 20.0327C49.8088 19.4138 49.2755 20.3333 48.6342 19.9023C48.5808 20.0641 48.5271 20.2267 48.4737 20.3885C48.3112 20.3348 48.1502 20.2816 47.9884 20.2282C47.953 20.6031 47.7506 20.6464 47.6142 20.8206C47.9083 20.8068 47.5887 21.1026 47.8836 21.089C48.2622 20.5934 48.7486 20.3067 49.2806 20.1157C49.2429 20.5765 48.8594 20.352 48.7444 20.6555C48.6421 20.9312 49.0084 20.9715 48.9069 21.2474C48.6717 21.1854 48.8391 20.9225 48.474 20.9259C48.2617 21.2589 48.0786 21.6561 47.7512 21.763C47.6745 21.436 47.602 21.6504 47.3471 21.6295C47.4008 21.467 47.4542 21.3052 47.5074 21.1442C47.2917 21.073 47.0744 21.0012 46.8595 20.9303C46.5479 21.4697 45.772 21.0869 45.5172 21.7404C45.7818 21.729 46.0078 21.6432 46.2693 21.6308C46.1978 21.8473 46.1271 22.0614 46.0557 22.2779C46.1832 22.372 46.5644 22.3384 46.5152 22.5189C46.3954 22.6822 46.0511 22.4021 45.8428 22.3871C45.8532 22.6497 45.9397 22.8758 45.9524 23.1392C46.2752 23.3351 46.4307 23.1975 46.6512 23.1914C46.3039 23.6132 46.9619 23.5288 47.0031 23.7557C46.3666 24.1817 45.6558 23.2762 45.0901 23.0339C45.0572 23.3698 44.8395 23.3386 44.687 23.4382C44.5731 23.3633 44.7037 23.162 44.4177 23.1699C43.9568 23.4 43.5033 23.7261 43.0455 23.2542C42.9852 23.8488 42.6438 23.8826 42.4022 24.1183C42.5584 24.5114 42.3221 24.3346 42.189 24.7639C42.3163 24.8588 42.697 24.8241 42.6475 25.0054C42.5366 25.3675 42.2438 25.3645 41.868 25.1953C41.7663 25.472 42.1326 25.5123 42.0303 25.788C41.6905 25.7356 41.4907 25.9626 41.2239 26.0592C41.3159 25.5313 41.7787 25.5368 41.5444 25.0885C41.6523 25.1241 41.7594 25.1594 41.868 25.1953C41.8641 24.8317 42.1277 24.9994 42.189 24.7639C41.8249 24.7694 41.9912 24.5044 41.7579 24.4421C41.4945 24.9905 40.8154 24.7134 40.3601 24.8768C40.1731 25.1072 40.6005 25.0256 40.4132 25.2541C40.6442 25.3971 40.6062 25.0084 40.872 25.227C40.8914 25.373 41.0889 25.4312 41.0077 25.6298C40.7865 25.6356 40.631 25.7733 40.3067 25.5769C40.2822 25.769 40.356 25.913 40.5229 26.0062C40.7535 26.1925 40.6724 25.7661 40.9012 25.9526C40.6581 26.2372 41.1489 26.4938 40.7685 26.6247C40.5474 26.1972 40.2933 26.5701 39.933 26.1703C39.9195 26.5368 40.175 26.7685 39.9353 27.2476C40.1681 27.3852 40.4042 26.8538 40.5009 27.1648C40.3309 27.3175 40.0367 27.2239 39.9889 27.6233C40.3508 27.6483 40.5283 28.1108 40.2346 28.2418C39.8925 28.2121 40.123 27.8921 39.7222 27.8932C39.6399 28.6227 39.1064 28.4561 38.5404 28.2198C38.576 28.112 38.6116 28.0041 38.6472 27.8962C38.5378 27.8601 38.4307 27.8248 38.3229 27.7892C38.1252 28.1122 38.2646 28.2674 38.2712 28.4889C37.7018 28.0322 37.3672 28.7434 37.0585 28.3581C37.0885 28.0152 37.408 28.2472 37.4079 27.8459C36.9811 28.0543 36.9578 27.7467 36.8157 27.471C36.5759 27.7931 36.9692 27.7964 36.7891 28.0897C36.5938 28.059 36.5747 28.3769 36.4139 28.4148C36.0702 28.4296 36.3322 28.1399 36.0625 28.1194C36.0269 28.2272 35.9913 28.3351 35.9562 28.4414C36.1327 28.5551 36.5754 28.5349 36.5757 28.7361C36.1946 28.7012 35.785 28.9231 36.0129 29.3563C35.8867 29.2635 35.5055 29.2971 35.5549 29.1158C35.7517 29.1054 35.8406 28.8808 35.9025 28.6039C35.7665 28.5382 35.4716 28.5518 35.6334 28.3348C35.409 28.2451 35.3852 28.5562 35.0952 28.3374C35.0367 29.0054 34.2532 28.8004 34.56 29.4149C34.2055 29.2441 33.9311 29.235 33.6987 29.309C33.6333 29.8483 33.2824 29.8217 33.0283 29.9848C32.9035 29.9349 33.0326 29.7565 32.8389 29.742C32.7975 29.8384 32.7522 29.9257 32.6234 29.8511C32.4804 30.0795 32.8702 30.041 32.6521 30.3078C32.4326 30.3662 32.3002 30.5886 32.0341 30.5519C31.7657 30.53 32.0269 30.2401 31.6824 30.2572C31.5068 30.3978 31.2481 30.373 31.1199 30.6089C31.2574 30.8303 31.0137 31.2456 31.2024 31.4431C30.7532 31.4413 31.3215 31.8569 30.9353 31.9816C30.8398 31.6935 30.5867 31.4834 30.5829 31.1484C30.4051 31.2432 30.1004 31.0845 29.9907 31.3117C30.1675 31.4247 30.6104 31.4037 30.6097 31.6054C30.5423 31.87 30.3592 31.9101 30.1535 31.9029C29.8602 31.917 30.179 31.6209 29.8841 31.6345C29.6803 31.7215 29.6066 32.0656 29.4277 32.2006C29.0893 32.0178 28.8732 32.0791 28.6482 32.1227C28.5347 32.2984 28.5544 32.7427 28.3535 32.7422C28.2733 32.2945 27.9556 32.6715 27.6258 32.5019C27.5546 32.7177 27.4834 32.9334 27.4122 33.1491C27.1229 32.9279 27.0996 33.24 26.8752 33.1504C26.6895 33.3794 27.1159 33.2983 26.9294 33.5271C27.1941 33.5157 27.4195 33.4289 27.6818 33.4167C27.607 33.5671 27.7391 33.6133 27.7649 33.7137C27.6168 33.7315 27.5586 33.929 27.3616 33.8483C27.4795 34.221 27.3544 34.0696 27.1747 34.4142C27.2516 34.7117 27.3451 35.0009 27.418 35.2997C27.2586 35.2471 27.0952 35.1932 26.935 35.1403C27.2823 34.7184 26.6215 34.8036 26.5826 34.5775C26.795 34.0444 26.4447 33.7926 26.2299 33.4747C25.8659 33.9101 25.4381 34.2213 24.7782 34.0701C24.4596 34.6359 24.7165 34.9105 24.5137 35.4173C24.6871 35.6245 25.281 35.9706 24.8653 36.2502C24.4289 35.9103 24.3015 35.4114 24.1349 34.9343C23.8741 34.9496 23.6584 35.0569 23.4906 35.2581C23.7149 35.3478 23.7385 35.0374 24.0283 35.2571C23.8575 35.6115 23.8474 35.8864 23.9243 36.1181C24.2343 36.1373 25.116 36.4283 25.378 36.5981C25.4318 36.1201 26.0912 36.1497 26.2115 36.2475C25.953 36.4343 25.6393 36.589 25.8087 36.9214C25.3539 36.9204 24.8953 36.8946 24.5964 36.5212C24.3124 36.4889 24.2597 36.9188 24.0608 37.0594C23.8854 36.992 24.1386 36.7055 24.1403 36.5482C23.6871 36.364 23.2688 36.2449 23.1713 36.7657C23.3079 36.8325 23.6035 36.8192 23.4412 37.0351C23.0356 36.8067 22.9286 37.1753 22.7146 37.3326C22.5733 37.1568 22.5079 36.9428 22.6868 36.6057C22.4304 36.3347 22.2254 36.8296 22.1754 36.527C22.3231 36.5073 22.3801 36.3112 22.5787 36.3923C22.6504 36.1751 22.7214 35.9601 22.7926 35.7444C22.3989 35.5009 22.352 35.9422 22.0394 35.8546C22.1127 36.0868 22.1044 36.3614 21.9328 36.7156C21.7726 36.6627 21.61 36.6091 21.4498 36.5561C21.2992 36.9806 21.596 36.9797 21.2364 37.2025C21.3312 37.2434 21.418 37.2902 21.3432 37.4172C21.5691 37.5074 21.5906 37.1955 21.8819 37.4157C21.7936 37.8199 21.6206 38.0575 21.2645 37.9286C21.2369 37.5606 20.7038 37.4479 20.7502 37.042C21.3285 37.3855 21.1556 36.2397 21.5566 36.2326C21.0176 35.9671 20.9647 36.6629 20.4257 36.3974C20.4296 36.761 20.1662 36.5952 20.1039 36.8286C20.2407 36.963 20.3792 37.0946 20.5082 37.2316C20.2329 37.4406 19.8113 37.363 19.7305 37.9595C19.9234 38.0865 20.0356 38.2561 19.8938 38.5517C19.732 38.4983 19.5702 38.4449 19.4092 38.3917C19.4446 38.2846 19.4802 38.1768 19.5158 38.0689C19.2263 37.8485 19.2024 38.1596 18.9781 38.0699C18.7916 38.2987 19.2179 38.2176 19.0315 38.4464C18.6492 38.3756 18.5196 38.7524 18.6578 39.0398C18.5056 38.9627 18.4617 39.0956 18.3616 39.1206C18.2195 38.8448 18.2115 38.6117 17.8489 38.7728C18.0693 38.4832 17.7582 38.4594 17.8479 38.235C18.0636 38.3063 18.2793 38.3775 18.495 38.4487C18.3375 38.0543 18.5746 38.2314 18.7084 37.8023C18.3838 37.6068 18.2286 37.7436 18.0081 37.7497C17.8116 38.2057 17.5565 38.5479 17.339 38.9624C17.4931 38.5036 16.8272 38.4571 16.3944 38.2925C16.4069 38.5567 16.4939 38.7813 16.504 39.0447C16.1632 38.8142 16.1464 39.2248 15.8043 38.993C15.7035 39.2692 16.0691 39.3093 15.9676 39.5852C15.6451 39.3886 15.489 39.5278 15.2678 39.5336C15.2053 39.2503 15.1904 38.9438 14.7815 38.8356C14.6667 39.3195 14.5897 39.0462 14.4052 38.8908C14.4046 39.2919 14.0866 39.0604 14.0558 39.403C14.3877 39.7761 13.6086 39.9227 13.925 40.3453C13.6497 40.1105 13.7828 40.6841 13.5754 40.5878C13.4847 40.5449 13.342 40.5255 13.3589 40.4271C13.8445 40.3239 13.3674 39.9445 13.6525 39.5377C13.233 39.3697 13.2321 40.0394 12.9835 40.2121C12.842 40.0813 12.9199 39.8401 12.6867 39.7562C12.5116 40.0347 12.2074 40.0556 12.0953 40.458C12.4833 40.6113 12.504 40.9188 12.9027 40.7246C12.6846 41.0149 12.9941 41.0382 12.9052 41.2628C12.6766 41.1206 12.7146 41.5093 12.448 41.2904C12.236 41.0609 12.3486 40.6673 11.8801 40.5664C11.827 40.7274 11.7735 40.8892 11.7204 41.0502C11.8479 41.1443 12.227 41.1091 12.1794 41.2927C11.9939 41.3242 11.8027 41.3469 11.6135 41.3737C11.5426 41.5887 11.4708 41.8059 11.4004 42.0193C11.6289 42.2066 11.5488 41.7797 11.7769 41.9659C11.6458 42.1948 11.6514 42.6951 11.4295 42.7475C11.2968 42.4774 11.1872 42.1951 11.2923 41.8059C11.002 41.5853 10.9792 41.8958 10.7548 41.8062C10.8305 41.4246 10.9973 41.2188 11.2908 41.2672C11.4484 40.8737 11.5717 40.4975 11.2345 40.3532C11.0028 40.6928 11.4125 40.7119 11.1824 41.052C10.6966 41.0268 10.8248 40.6938 10.4284 40.6236C10.3928 40.7315 10.3572 40.8393 10.3216 40.9472C10.4376 41.0002 10.6289 41.0166 10.6176 41.135C10.5335 41.2373 10.5738 41.5826 10.4029 41.5123C9.89726 41.4762 9.95336 41.1541 9.56786 41.0563C9.53176 41.1657 9.49686 41.2712 9.46126 41.3791C9.68906 41.5661 9.60896 41.1392 9.83856 41.3259C9.74416 41.4517 9.77986 41.8318 9.59566 41.7832C9.24166 41.7816 9.51956 41.4625 9.16506 41.4624C8.87816 41.6936 8.52106 41.788 8.25291 42.0566C8.02883 41.8795 8.01337 42.1179 7.8754 42.1105C7.76014 42.0343 7.8905 41.8338 7.60578 41.843C7.22145 42.0619 6.96014 42.5226 6.58471 42.7592C6.47102 42.6835 6.60085 42.4845 6.31508 42.4916C6.22959 42.7217 5.85878 42.3877 5.8047 42.6828C6.14185 42.7144 6.10994 42.9318 6.20954 43.0843C6.10324 43.1411 5.99669 43.196 5.88778 43.2476C5.772 43.1704 5.9013 42.9704 5.61867 42.9785C5.30412 43.1147 5.14138 43.5498 4.56977 43.1704C4.43716 43.3988 4.44223 43.9006 4.22192 43.9509C4.07969 43.8199 4.15969 43.5776 3.92364 43.4945C3.70401 43.7843 4.01433 43.8078 3.92543 44.0325C3.7092 43.8709 3.7228 44.1658 3.65655 44.3034C3.19529 44.0098 3.25022 44.7439 2.85021 44.5746C2.88634 44.4651 2.92195 44.3573 2.95679 44.2518C2.72588 44.2371 2.53685 44.3055 2.47426 44.629C2.79704 44.8248 2.95177 44.687 3.17299 44.6811C3.01718 45.0821 2.72922 45.2272 2.31427 45.1135C2.54495 44.7719 2.13522 44.7554 2.36486 44.4143C2.02402 44.1839 2.0067 44.5933 1.66534 44.3619C1.47911 44.5899 1.90678 44.5101 1.72107 44.7391C1.37251 44.5374 1.27339 44.8297 1.04864 44.8751C1.03741 44.6781 0.8128 44.5892 0.5362 44.5265C0.45947 44.9085 0.29347 45.1146 0 45.0662C0.00986 45.3304 0.0977 45.5553 0.10938 45.8192C0.26575 45.8916 0.55478 45.5675 0.6221 45.8992Z" fill="white"/>
</svg>
