<svg width="80" height="55" viewBox="0 0 80 55" fill="none" xmlns="http://www.w3.org/2000/svg">
<path fill-rule="evenodd" clip-rule="evenodd" d="M0.64558 53.2794C0.77385 53.3556 0.81941 53.2675 0.86235 53.1716C0.91471 53.1888 0.96864 53.2066 1.02257 53.2245C0.94667 53.3519 1.03451 53.3983 1.13172 53.4399C1.11391 53.4938 1.09611 53.5478 1.0783 53.6017C0.95029 53.5274 0.90499 53.6147 0.86206 53.7106C0.80813 53.6928 0.7542 53.675 0.70184 53.6577C0.77643 53.5289 0.68833 53.4833 0.59216 53.4412C0.60997 53.3873 0.62777 53.3333 0.64558 53.2794ZM1.88465 53.3305C2.10587 53.3247 2.25955 53.1848 2.58364 53.3819C2.48177 53.8033 1.92601 53.3234 1.88487 53.868C1.5691 53.8478 1.87658 53.5125 1.88465 53.3305ZM8.60586 51.4265C8.01779 51.215 8.1947 51.094 7.6367 51.1065C7.97472 50.7128 7.3381 50.8086 7.47365 50.5161C8.12689 50.6798 8.39495 51.0388 8.60586 51.4265ZM9.41196 50.6179C9.35856 50.7797 9.30516 50.9414 9.25176 51.1032C9.04896 50.9349 8.94276 50.7186 8.92586 50.4574C9.08766 50.5108 9.24866 50.5639 9.41196 50.6179ZM9.30076 49.8652C9.66986 50.1466 9.87836 50.1478 10.4325 50.2389C10.3977 50.6148 10.1932 50.6565 10.0576 50.831C9.82236 50.593 9.74876 50.17 9.30176 50.4029C9.39146 50.1786 9.08116 50.155 9.30076 49.8652ZM13.4685 48.9114C13.7522 49.2547 14.1284 49.118 14.5731 49.0967C14.4213 49.441 14.9609 49.4397 14.8969 49.741C14.4307 49.4389 14.3089 49.8208 14.0906 50.0122C13.8004 49.665 13.0716 49.5388 13.172 48.9929C13.3381 49.0963 13.3385 48.8772 13.4685 48.9114ZM15.1669 49.4722C15.4554 49.6905 15.4795 49.3812 15.7033 49.4699C15.6423 49.7045 15.3784 49.5377 15.3831 49.9015C15.2752 49.8659 15.1674 49.8303 15.0603 49.795C15.0959 49.6871 15.1315 49.5792 15.1669 49.4722ZM15.6474 48.0169C15.8155 48.1114 15.8878 48.2549 15.8633 48.447C15.7555 48.4114 15.6476 48.3758 15.5405 48.3405C15.5761 48.2326 15.6118 48.1247 15.6474 48.0169ZM18.6578 47.5781C18.7664 47.614 18.8735 47.6493 18.9821 47.6852C18.9643 48.0962 18.6243 47.8661 18.6069 48.2781C18.4999 48.2428 18.392 48.2072 18.2842 48.1716C18.3007 47.7592 18.6407 47.9894 18.6578 47.5781ZM18.7166 49.0303C18.5661 48.9269 18.1131 48.9758 18.2844 48.709C18.4364 48.813 18.8902 48.7643 18.7166 49.0303ZM20.4832 45.8509C20.4475 45.9588 20.4119 46.0666 20.3768 46.1729C20.2076 46.0789 20.1359 45.9365 20.1604 45.7443C20.2682 45.7799 20.3753 45.8153 20.4832 45.8509ZM20.4867 46.9269C20.3781 46.891 20.271 46.8557 20.1632 46.8201C20.1988 46.7122 20.2344 46.6043 20.27 46.4965C20.5689 46.5258 20.6411 46.6693 20.4867 46.9269ZM23.1202 45.4665C23.3901 45.4655 23.2039 45.6935 23.1747 45.8425C22.9474 45.6565 23.0265 46.0839 22.7977 45.8974C22.8592 45.6638 23.1234 45.8299 23.1202 45.4665ZM25.9129 43.5214C26.1336 43.231 25.8215 43.2077 25.9112 42.9834C26.019 43.019 26.1261 43.0543 26.2347 43.0902C26.0143 43.3797 26.3262 43.4038 26.2357 43.6279C26.1279 43.5923 26.02 43.5567 25.9129 43.5214ZM25.9099 42.4438C26.1337 42.5351 26.1578 42.2232 26.4484 42.4431C26.4513 42.8072 26.1879 42.6414 26.1269 42.8734C25.9579 42.7787 25.8854 42.636 25.9099 42.4438ZM25.32 43.1462C25.3823 42.8235 25.5714 42.755 25.8033 42.7666C25.6221 42.8533 25.5679 43.1933 25.32 43.1462ZM27.735 41.2557C27.7991 41.022 28.0599 41.1879 28.0588 40.8235C28.2277 40.9182 28.2992 41.0615 28.2745 41.2544C28.0488 41.1634 28.0266 41.475 27.735 41.2557ZM28.971 40.2293C29.1417 40.4867 29.3096 40.524 29.5097 40.2277C30.1561 40.6275 30.4457 40.3989 30.8287 40.8427C30.9287 40.8601 30.9458 40.7166 30.9911 40.6267C31.0019 40.5098 30.8114 40.4937 30.693 40.4399C30.691 40.076 30.9525 40.2421 31.0159 40.0082C31.3089 40.1968 31.3263 40.525 31.7984 40.6254C31.9153 40.6363 31.9312 40.4439 31.985 40.3282C32.2544 40.3495 31.9924 40.6392 32.3349 40.6231C32.6604 40.5113 32.9056 40.2386 33.277 40.2165C33.2612 40.3639 33.1641 40.3483 33.0607 40.3254C32.8763 40.5531 33.3037 40.4741 33.1167 40.7019C32.8887 40.5156 32.9677 40.943 32.7405 40.7571C32.554 40.9859 32.9804 40.9047 32.7939 41.1335C33.0242 41.3205 32.9429 40.8923 33.1716 41.0788C33.1363 41.1859 33.1007 41.2938 33.0651 41.4016C32.7165 41.2839 32.6021 41.0503 32.444 40.8386C32.1903 40.8432 32.3139 41.2091 32.3916 41.2677C32.3231 41.5328 32.1398 41.5737 31.9344 41.5657C31.97 41.4578 32.0053 41.3508 32.0409 41.2429C31.6498 40.9994 31.6014 41.4401 31.288 41.3523C31.2952 41.1466 31.2554 40.9653 30.9921 40.8966C30.809 40.8474 30.8436 41.2281 30.7508 41.3543C30.4724 41.2919 30.2496 41.2027 30.2384 41.0057C30.0874 41.1058 29.8695 41.0755 29.8361 41.4103C29.0814 41.3414 29.4764 40.6935 28.8644 40.552C28.9 40.4442 28.9353 40.3371 28.971 40.2293ZM31.7655 38.8221C32.0646 38.8506 32.1366 38.9949 31.9817 39.2514C31.8746 39.2161 31.7667 39.1805 31.6589 39.1449C31.6945 39.037 31.7299 38.9299 31.7655 38.8221ZM32.7379 40.2188C32.5476 39.9999 32.3104 39.8046 32.467 39.4117C32.7769 39.5704 32.6505 39.9481 32.7379 40.2188ZM33.1116 39.0871C33.076 39.195 33.0406 39.302 33.005 39.4099C32.8972 39.3743 32.7893 39.3387 32.6814 39.3031C32.7762 39.1341 32.9194 39.0627 33.1116 39.0871ZM33.8615 37.9002C33.7332 38.0945 33.5661 38.2066 33.2714 38.0651C33.3978 37.8711 33.5667 37.7587 33.8615 37.9002ZM34.5615 37.9536C34.5104 38.4759 34.1313 38.3481 34.0797 38.8694C33.7397 38.6392 33.7208 39.0482 33.3807 38.818C33.6098 38.5599 33.8436 38.3112 34.024 37.9539C34.3138 38.1735 34.3371 37.864 34.5615 37.9536ZM34.1359 39.7833C34.4586 39.8456 34.5273 40.0365 34.5142 40.2679C34.3524 40.2145 34.1914 40.1613 34.0288 40.1076C34.0647 39.999 34.1003 39.8912 34.1359 39.7833ZM34.9932 38.2739C34.9398 38.4356 34.8861 38.5982 34.8327 38.76C34.5386 38.7738 34.8566 38.4775 34.5625 38.4914C34.6578 38.3235 34.8015 38.2505 34.9932 38.2739ZM35.0489 39.1894C35.2178 39.2841 35.2903 39.4268 35.2659 39.619C34.925 39.3886 34.9061 39.7975 34.5661 39.5673C34.6478 39.2858 34.9672 39.4709 35.0489 39.1894ZM35.4215 37.5199C35.7164 37.5063 35.396 37.8019 35.6925 37.7888C35.2885 38.3506 36.0207 38.3409 35.9089 38.7556C35.7487 38.7027 35.5861 38.6491 35.4259 38.5961C35.4978 38.3573 35.2568 38.276 35.2347 38.0858C35.4136 37.7409 35.5405 37.892 35.4215 37.5199ZM36.5489 36.8173C36.9609 36.8347 36.7308 37.1747 37.1426 37.1928C36.985 37.5915 36.4583 37.2598 36.1755 37.41C36.1915 36.9993 36.5318 37.2286 36.5489 36.8173ZM33.4344 39.1937C33.6371 39.362 33.7439 39.5767 33.7597 39.8385C33.5586 39.6707 33.4502 39.4555 33.4344 39.1937ZM30.6981 42.0546C30.7338 41.9468 30.7691 41.8397 30.8052 41.7303C30.9742 41.8251 31.0464 41.9685 31.0209 42.1612C30.9139 42.1258 30.806 42.0902 30.6981 42.0546ZM29.8928 42.8635C29.9284 42.7557 29.964 42.6478 29.9994 42.5407C30.1686 42.6347 30.24 42.7779 30.2172 42.9706C30.1077 42.9345 30.0014 42.8994 29.8928 42.8635ZM29.1399 42.9729C28.8231 42.9532 29.1324 42.6176 29.1389 42.4352C29.4557 42.4548 29.1472 42.7907 29.1399 42.9729ZM38.866 37.4021C38.7434 37.6971 38.5782 37.9008 38.3295 37.9427C38.5263 37.4937 38.4671 37.3762 38.1133 37.5133C38.2479 37.2474 38.5133 37.2363 38.866 37.4021ZM41.4419 35.0265C41.4058 35.1359 41.371 35.2415 41.3351 35.3501C41.2273 35.3145 41.1194 35.2789 41.0123 35.2435C41.1071 35.0746 41.2498 35.0021 41.4419 35.0265ZM43.2116 32.9221C43.1757 33.0307 43.1404 33.1378 43.1047 33.2457C42.9356 33.1517 42.863 33.009 42.888 32.8153C42.9959 32.8509 43.1037 32.8865 43.2116 32.9221ZM43.4779 32.1155C43.4425 32.2226 43.4069 32.3305 43.3713 32.4383C43.2635 32.4027 43.1556 32.3671 43.0477 32.3315C43.1425 32.1625 43.2857 32.0911 43.4779 32.1155ZM45.039 31.7347C45.3553 31.7533 45.0473 32.0902 45.0392 32.2722C44.724 32.253 45.0317 31.9169 45.039 31.7347ZM46.9737 30.7605C46.6641 30.601 46.7897 30.223 46.7018 29.9539C47.0656 29.9492 46.8993 30.2141 47.1342 30.2743C47.0808 30.4361 47.0271 30.5987 46.9737 30.7605ZM48.1008 30.0561C47.969 30.4867 47.7319 30.3096 47.8874 30.7024C47.7803 30.6671 47.6725 30.6315 47.5646 30.5959C47.6406 30.2136 47.8086 30.009 48.1008 30.0561ZM51.4323 28.1094C51.5401 28.145 51.648 28.1806 51.7551 28.2159C51.7592 28.5814 51.4956 28.4137 51.4343 28.6492C51.1165 28.6274 51.4271 28.2931 51.4323 28.1094ZM52.5106 28.6448C52.3511 29.0437 51.7556 28.8471 51.8642 28.4314C52.0799 28.5026 52.2957 28.5738 52.5106 28.6448ZM52.8789 25.8991C52.9142 25.7921 52.9501 25.6834 52.9855 25.5764C53.1552 25.6714 53.2266 25.8146 53.2024 26.006C53.0954 25.9706 52.9875 25.935 52.8789 25.8991ZM54.7071 24.7094C55.006 24.7388 55.0772 24.8828 54.9228 25.1403C54.8157 25.105 54.7071 25.0691 54.6 25.0338C54.6356 24.9259 54.6715 24.8173 54.7071 24.7094ZM56.959 22.2286C57.0668 22.2642 57.1747 22.2998 57.2825 22.3354C57.2472 22.4425 57.2116 22.5503 57.176 22.6582C57.007 22.5634 56.9348 22.4199 56.959 22.2286ZM57.6646 23.8952C57.4432 24.1852 57.7556 24.2078 57.6646 24.4334C57.432 24.3714 57.5973 24.107 57.2337 24.1109C57.329 23.943 57.4722 23.8715 57.6646 23.8952ZM58.4656 21.4692C58.6259 21.5221 58.7884 21.5758 58.9486 21.6287C58.6048 22.0716 59.4003 21.9408 59.0588 22.3845C58.6577 22.3838 58.8877 22.0653 58.5464 22.0359C58.24 22.1289 58.4039 22.5514 58.4142 22.7091C58.0378 22.6732 57.9956 22.4703 57.8205 22.3336C58.0268 22.0316 58.3703 21.9968 58.4656 21.4692ZM59.5418 22.0057C59.7691 22.1154 59.6102 22.4209 59.7044 22.5976C59.3593 22.4456 59.3617 22.9846 59.0606 22.9225C59.1863 22.5471 59.4895 22.5293 59.5418 22.0057ZM60.0249 21.6269C60.1105 21.8086 60.4516 21.8623 60.4039 22.1092C60.2421 22.0558 60.0804 22.0024 59.9186 21.9489C59.9537 21.8426 59.989 21.7356 60.0249 21.6269ZM59.2778 23.8896C59.1129 23.6592 58.7341 23.5358 58.7922 23.1918C59.0611 23.2806 59.33 23.3694 59.5996 23.4584C59.5381 23.6921 59.275 23.5254 59.2778 23.8896ZM58.3102 24.1083C58.405 23.9394 58.5482 23.868 58.7406 23.8916C58.9325 24.0191 59.0454 24.1864 58.9031 24.4835C58.5256 24.4482 58.4847 24.244 58.3102 24.1083ZM61.2062 20.7636C61.5248 20.783 61.2139 21.1181 61.209 21.3011C60.8906 21.2809 61.2012 20.9466 61.2062 20.7636ZM62.2761 18.0693C62.6332 18.1586 62.7423 18.3741 62.6001 18.7154C62.4881 18.5008 62.3795 18.2863 62.2761 18.0693ZM61.7932 18.9856C61.5233 18.9866 61.7098 18.7578 61.7396 18.6099C61.8467 18.6452 61.9545 18.6808 62.0624 18.7164C62.076 19.0113 61.7791 18.6897 61.7932 18.9856ZM63.2986 18.2275C63.4065 18.2631 63.5136 18.2985 63.6214 18.3341C63.6258 18.6987 63.362 18.5319 63.3002 18.7663C62.9826 18.7464 63.2924 18.4092 63.2986 18.2275ZM64.5372 18.2776C64.3162 18.5687 64.6276 18.5918 64.5371 18.8159C64.3442 18.8016 64.4733 18.6232 64.349 18.5743C64.2399 18.6267 64.132 18.6804 64.0273 18.7377C63.9303 18.9423 64.5041 18.811 64.2701 19.0865C63.8583 19.0684 64.0884 18.7284 63.6766 18.7103C63.7704 18.1848 64.0573 18.0403 64.5372 18.2776ZM64.6409 16.8791C64.6053 16.987 64.57 17.094 64.5346 17.2011C64.3639 17.1066 64.2929 16.9644 64.3166 16.772C64.4237 16.8074 64.5315 16.843 64.6409 16.8791ZM65.5533 16.8224C65.5177 16.9302 65.4829 17.0357 65.4467 17.1452C65.1256 17.0833 65.0569 16.8925 65.0703 16.6629C65.2305 16.7158 65.3931 16.7695 65.5533 16.8224ZM65.1304 18.652C64.7644 18.6577 64.9323 18.3934 64.6974 18.3305C64.8783 18.2446 64.9322 17.9053 65.1802 17.9525C65.1268 18.1143 65.0736 18.2753 65.0202 18.4371C65.1678 18.4546 65.1525 18.551 65.1304 18.652ZM67.3784 14.5551C67.413 14.4504 67.4494 14.3402 67.485 14.2323C67.654 14.3271 67.7267 14.4716 67.7028 14.6622C67.5942 14.6263 67.4863 14.5907 67.3784 14.5551ZM68.1886 15.3618C68.2009 15.6553 67.9049 15.3365 67.9182 15.6322C67.7495 15.5366 67.6783 15.3926 67.7025 15.2012C67.8651 15.2549 68.0253 15.3078 68.1886 15.3618ZM69.683 10.8357C69.898 10.9067 70.1137 10.9779 70.3286 11.0489C70.1919 11.2239 69.9875 11.2656 69.9524 11.6423C69.6427 11.4855 69.7676 11.1072 69.683 10.8357ZM68.1253 12.2933C68.2928 12.0929 68.5091 11.984 68.7696 11.9695C68.6017 12.1706 68.3865 12.279 68.1253 12.2933ZM66.3086 16.7112C66.2727 16.8198 66.2371 16.9277 66.2012 17.0363C66.0934 17.0007 65.9855 16.9651 65.8769 16.9292C65.9727 16.7598 66.1159 16.6883 66.3086 16.7112ZM0.6221 53.8992C0.43453 53.9317 0.24511 53.9541 0.0556999 53.9817C0.11026 54.3127 0.17496 54.6391 0.70464 54.7334C0.75714 54.6164 0.77247 54.4256 0.89119 54.4362C1.00639 54.4915 0.90092 54.6561 0.86485 54.7863C1.41435 54.8048 1.79869 54.4992 2.37201 54.5662C2.46483 54.44 2.43121 54.0588 2.61329 54.1085C2.72829 54.1855 2.59742 54.385 2.8824 54.3777C3.15113 54.2384 3.40679 54.0784 3.55278 53.7019C3.43784 53.6483 3.24545 53.6325 3.25683 53.514C3.92493 53.4122 2.87988 52.5765 3.60314 52.4652C3.27992 53.0319 3.90562 53.1215 3.76954 53.594C4.05777 53.8132 4.08292 53.5034 4.30571 53.5925C3.8648 53.8673 4.24008 54.1273 3.85208 54.4283C3.99261 54.6038 3.96783 54.8626 4.20349 54.9915C4.45038 54.8607 4.57371 54.4793 4.68448 54.0756C4.56955 54.022 4.37716 54.0062 4.38853 53.8877C4.41511 53.8072 4.44195 53.7259 4.46827 53.6462C4.82562 53.7347 4.93477 53.9502 4.79285 54.2908C5.05934 54.4628 5.01042 54.0098 5.11463 53.8596C4.56599 53.6863 4.66686 53.1865 4.57228 52.7852C4.93119 52.8742 5.03878 53.0891 4.89789 53.4292C5.18769 53.6488 5.21127 53.3385 5.43563 53.4282C5.38688 53.7675 5.75839 53.8945 5.70704 54.2338C5.59918 54.1982 5.49211 54.1628 5.38426 54.1272C5.35982 54.3193 5.43206 54.4628 5.60021 54.5573C5.82612 54.6475 5.8484 54.3359 6.13976 54.5561C6.23444 54.2614 5.90184 54.1819 5.78704 53.9915C6.59238 54.0069 6.137 52.9447 6.29386 52.4565C5.74469 52.4633 5.97083 52.0803 5.75512 51.9198C5.53549 52.2096 5.84581 52.2331 5.75613 52.4575C5.48036 52.2243 5.61187 52.7973 5.40779 52.7013C5.1815 52.2946 4.6053 52.6799 4.22295 52.2208C4.59843 52.2781 4.70859 52.0258 4.57 51.7079C4.91111 51.759 5.0368 51.3862 5.37713 51.437C5.7889 51.807 5.9301 51.6707 6.61746 52.0251C6.60686 51.8681 6.44221 51.4454 6.74803 51.3514C6.69947 51.7583 7.14837 51.9135 7.47798 52.1306C7.5708 52.0044 7.53692 51.624 7.71951 51.6721C7.75127 51.8568 7.77472 52.0483 7.80077 52.2372C8.02199 52.2314 8.17802 52.0922 8.50056 52.2888C8.40693 52.4148 8.44159 52.7955 8.25848 52.7463C7.91691 52.7176 8.14844 52.3997 7.74761 52.3982C7.712 52.5061 7.67639 52.6139 7.64077 52.7218C7.76701 52.8146 8.14744 52.7807 8.0985 52.9631C7.95072 52.9827 7.89402 53.1807 7.69598 53.098C7.55851 52.8108 7.00673 52.6286 6.72684 52.778C6.63781 53.0476 6.54852 53.3181 6.46001 53.5861C6.74108 53.6694 6.55485 53.9867 6.83774 54.0697C7.02247 53.7701 6.62662 53.4175 7.02329 53.2347C7.36733 53.2192 7.1045 53.5086 7.37369 53.5307C7.71655 53.1013 9.03706 53.6197 8.71836 52.7187C8.98356 53.3515 9.47096 52.5078 9.68746 53.0387C10.0568 52.3823 9.41136 52.2342 9.17196 51.883C9.25516 51.7805 9.21496 51.4352 9.38666 51.5058C9.46796 51.5326 9.54846 51.5592 9.62816 51.5855C9.47336 51.9782 9.70846 52.1745 9.90086 52.3924C9.88626 52.098 10.1816 52.4165 10.1682 52.1235C10.2584 51.8976 9.94626 51.8743 10.1677 51.5842C10.2748 51.6196 10.3827 51.6552 10.4905 51.6908C10.3877 51.493 10.4598 50.8572 10.73 50.6951C11.019 50.7281 10.9397 50.9498 11.053 51.0713C10.9314 51.1378 10.7745 51.1405 10.7589 51.4214C11.0796 51.256 11.4068 51.1023 11.7789 51.0414C11.8706 50.816 11.5582 50.7934 11.7794 50.5042C11.8857 50.5393 11.9944 50.5751 12.1022 50.6107C11.7531 51.0329 12.4134 50.9467 12.4521 51.1735C12.2776 51.3161 12.0628 51.3813 11.7255 51.2032C11.6898 51.311 11.6542 51.4189 11.6189 51.526C12.283 51.6854 12.5784 51.1112 13.1797 51.1459C13.2331 50.9842 13.2863 50.8231 13.3402 50.6598C12.9541 51.0602 12.9237 50.5405 12.425 50.7173C12.4604 50.6102 12.4965 50.5008 12.5321 50.393C13.202 50.6532 13.511 50.1978 14.0372 50.174C14.1806 50.3721 14.4054 50.5287 14.7935 50.6031C14.885 50.4756 14.8527 50.0956 15.0334 50.1441C15.4595 50.2215 15.1536 50.6674 15.6542 50.7079C15.6818 50.4093 15.8263 50.3365 16.0839 50.4909C16.2538 50.1362 16.2637 49.8621 16.1886 49.6301C16.5486 49.8105 16.646 49.4656 17.051 49.7354C17.1509 49.459 16.7862 49.4192 16.8877 49.1432C17.0372 49.1735 17.2644 49.3595 17.2644 49.0891C16.9782 48.8455 16.7227 49.3358 16.5907 48.9559C16.901 48.8113 16.9711 48.1948 17.3687 48.2273C16.8547 47.9908 16.8271 47.5128 16.6666 47.0983C16.7614 46.9294 16.9046 46.8579 17.096 46.8821C16.8714 47.4442 17.0517 47.8036 17.6378 47.9581C17.3692 48.4068 17.9619 48.4231 17.6948 48.8723C18.1178 49.2634 18.8668 49.4257 19.2543 49.0293C19.0905 48.7984 18.7122 48.6735 18.7687 48.3315C18.8766 48.3672 18.9844 48.4028 19.0915 48.4381C19.1642 48.281 18.8396 47.9909 19.1707 47.9252C19.2382 48.0489 19.2418 48.206 19.5214 48.2204C19.766 47.8287 19.3239 47.7816 19.412 47.4674C19.7347 47.5297 19.8019 47.7201 19.7895 47.9518C20.0857 47.845 20.2638 47.9038 20.4359 48.1652C20.5476 47.9369 20.8495 48.0963 21.0283 48.0011C21.0195 47.8439 20.8546 47.4219 21.1602 47.3287C21.3493 47.3911 21.5369 47.4531 21.726 47.5155C21.8098 47.2329 22.1261 47.4196 22.2098 47.137C21.772 47.0193 21.3656 46.8877 21.5351 46.4661C21.7541 46.4092 21.8878 46.1855 22.1531 46.222C22.4477 46.2092 22.1284 46.5042 22.423 46.4914C22.476 46.2836 22.6691 46.3551 22.7716 46.2468C22.7844 46.4443 23.0074 46.5327 23.284 46.5954C23.5083 46.3704 23.7307 46.1457 23.9557 45.9209C24.0171 46.092 24.2116 46.1961 24.0364 46.485C23.9309 46.4502 23.8215 46.414 23.7137 46.3784C23.678 46.4863 23.6424 46.5941 23.6068 46.702C23.8736 46.6081 24.2555 46.7402 24.5226 46.6455C24.5464 46.1611 24.8818 46.29 24.9509 45.8916C25.0588 45.9272 25.1659 45.9625 25.2745 45.9984C25.3455 45.7835 25.4172 45.5662 25.4877 45.3528C25.6378 45.4284 25.6832 45.2961 25.7834 45.271C25.8501 45.3945 25.8542 45.5501 26.134 45.5662C26.2278 45.0381 26.5144 44.8944 26.9943 45.1317C27.0653 44.9168 27.1365 44.7011 27.2077 44.4854C27.6789 44.3523 28.201 44.3201 28.4966 43.837C28.1722 43.6406 28.0183 43.7788 27.7968 43.7854C28.1361 43.3904 27.4985 43.4867 27.634 43.1942C27.9981 43.1888 27.8323 43.4521 28.0659 43.5137C28.1779 43.3374 28.1576 42.8947 28.3604 42.8949C28.369 43.2731 28.5848 43.5437 29.0885 43.6745C29.2905 43.4933 29.4477 43.2271 29.7057 43.1597C29.8592 43.33 29.7664 43.6244 30.1647 43.6701C30.3915 43.3168 30.6397 43.0061 30.7533 42.4308C30.905 42.5069 30.9494 42.3751 31.048 42.3496C31.1744 42.3974 31.0445 42.5755 31.2379 42.5908C31.3519 42.4135 31.3306 41.9714 31.5321 41.9703C31.8769 41.955 31.6133 42.2441 31.8841 42.2668C32.1659 41.8909 32.5472 41.7126 32.9296 41.5363C33.0554 41.5857 32.9248 41.7635 33.1195 41.7776C33.3161 41.6362 33.4732 41.4098 33.5479 41.0236C34.0788 40.9172 34.5718 40.7368 35.1082 40.6426C35.0421 40.4699 35.0088 39.9328 35.2937 39.8076C35.637 39.7918 35.3752 40.0807 35.6444 40.1028C35.8078 39.8022 36.3625 40.2801 36.4507 39.8316C36.3292 39.5774 36.4567 39.1991 36.6094 38.8075C36.2876 38.7454 36.2194 38.5556 36.2315 38.3247C36.3917 38.3776 36.5542 38.4313 36.716 38.4847C36.6223 38.2172 36.7537 37.8376 36.6585 37.5695C36.9352 37.6713 36.9758 37.3068 37.2512 37.4072C37.2653 37.7005 36.969 37.3825 36.9829 37.6766C37.3119 37.6171 37.24 37.5934 37.4674 37.8366C37.5215 37.7201 37.5368 37.5293 37.6537 37.5401C37.7573 37.6229 38.1039 37.5839 38.033 37.7564C37.5711 38.221 36.9649 38.4005 36.7717 39.4002C37.1485 39.2568 37.2608 38.5857 37.847 38.8581C37.9534 38.4018 38.3554 38.5285 38.5178 38.1834C38.707 38.2459 38.8946 38.3078 39.0821 38.3697C39.0852 37.9694 39.4031 38.2009 39.4323 37.8578C39.3546 37.605 39.2365 37.3745 39.3487 37.0241C39.0916 36.7529 38.8871 37.2461 38.8366 36.9451C39.0826 36.8981 39.201 36.5974 39.5361 36.7271C39.5945 36.9466 39.8166 37.0798 39.7804 37.3469C40.1334 37.3569 40.2619 36.9781 40.4805 37.3978C40.5205 37.3027 40.5674 37.2133 40.6949 37.2892C40.6488 36.7513 40.4869 36.2705 40.5019 35.7025C40.7099 35.5346 41.0169 35.5657 41.2814 35.5127C41.228 35.6744 41.1751 35.8347 41.1214 35.9972C41.0136 35.9616 40.9057 35.926 40.7986 35.8906C40.7118 36.2035 41.1526 36.252 40.9083 36.6428C41.0154 36.6782 41.124 36.714 41.2311 36.7494C41.2664 36.6423 41.302 36.5344 41.3376 36.4266C41.2217 36.3736 41.0303 36.3572 41.0417 36.2387C41.3507 36.1561 41.6332 35.9356 41.4432 35.5661C41.6727 35.7086 41.6338 35.3196 41.901 35.5369C41.9577 35.6432 42.0106 35.7508 42.064 35.8595C42.0147 35.9853 41.8365 35.8554 41.8207 36.0478C42.3623 36.4078 42.4215 35.8111 42.8977 36.0463C42.9338 35.9369 42.9692 35.8298 43.0048 35.722C42.7836 35.7278 42.6276 35.867 42.3043 35.6701C42.2529 35.4503 42.2883 35.1855 42.1673 34.9982C42.4275 35.0659 42.3911 34.5486 42.5972 34.5126C42.5238 34.8871 42.9221 35.0221 42.7354 35.4536C43.1297 35.7927 43.0334 35.155 43.3266 35.2908C43.4157 35.0654 43.1059 35.0429 43.3248 34.7528C43.0347 34.534 43.0114 34.8435 42.7871 34.7538C42.9733 34.5258 42.5454 34.6064 42.7311 34.3774C43.3494 34.6994 43.6437 34.4013 43.9425 34.7774C44.073 34.8126 44.0763 34.5927 44.2387 34.6966C43.9907 34.1614 44.5685 33.7818 44.9354 33.6707C44.7592 33.5588 44.3165 33.579 44.3162 33.3778C44.6498 32.9974 44.9085 33.0013 44.8256 32.3811C45.3532 32.4712 45.3472 32.9355 45.7947 32.7011C45.7334 33.0232 45.5428 33.0912 45.3119 33.0791C45.3714 33.4081 45.3954 33.3355 45.1522 33.5628C45.442 33.7825 45.4653 33.4729 45.6899 33.5618C45.7796 33.3375 45.4677 33.3134 45.6881 33.0239C45.796 33.0595 45.9039 33.0951 46.0109 33.1304C46.1542 32.9012 45.766 32.9403 45.9833 32.6732C46.0896 32.6164 46.1965 32.5633 46.3051 32.5099C46.4217 32.5874 46.2911 32.7887 46.5742 32.779C46.8882 32.6443 47.0518 32.2095 47.6236 32.5881C47.6951 32.3716 47.7661 32.1567 47.8373 31.941C47.5145 31.7451 47.3587 31.8835 47.1378 31.8886C47.6038 31.6533 47.0384 31.2577 47.1347 30.8136C47.3635 31.0001 47.2837 30.5724 47.5109 30.7584C47.4348 30.9101 47.5682 30.955 47.5932 31.0552C47.5444 31.1795 47.3647 31.049 47.3509 31.243C47.7528 31.2439 47.5205 31.5616 47.8634 31.5916C48.1128 31.1487 48.9043 31.7862 49.128 31.2923C49.1522 31.101 49.0799 30.9575 48.9115 30.8612C48.5841 30.9732 48.3386 30.6486 48.0771 30.6766C48.2708 30.7068 48.291 30.3884 48.4522 30.3515C48.8232 30.3674 48.7629 30.5997 48.9644 30.7009C49.0185 30.5844 49.0343 30.392 49.1512 30.4029C49.2924 30.5345 49.2127 30.776 49.449 30.8609C49.5439 30.5577 49.9066 30.7875 49.9586 30.4017C50.0559 30.1963 49.4803 30.3278 49.7161 30.052C50.1666 30.323 50.3617 30.0892 50.7384 30.211C50.7782 29.7544 51.1717 30.0013 51.3837 29.8867C51.4721 29.661 51.1639 29.639 51.3812 29.3484C50.9895 29.1038 50.9434 29.5454 50.6282 29.4578C50.5436 29.2756 50.2038 29.2232 50.251 28.9753C50.6633 28.9918 50.4332 29.3319 50.8452 29.3492C50.9182 28.9104 51.5802 28.9452 51.785 29.2122C51.7558 29.5553 51.437 29.3235 51.4371 29.7249C51.778 29.9553 51.7974 29.5448 52.1372 29.7757C52.2902 29.3885 52.5993 29.3684 52.4035 28.9692C52.6278 29.0588 52.6519 28.747 52.9417 28.9666C53.1541 28.4048 53.7298 28.5698 53.8531 27.8339C53.7726 27.8073 53.6929 27.781 53.6116 27.7541C53.4116 27.6248 53.5435 28.1546 53.343 28.0243C52.9987 27.8438 53.149 27.7193 52.7772 27.8375C52.9636 27.6087 52.5368 27.6887 52.7222 27.4605C52.884 27.5139 53.0458 27.5673 53.2076 27.6207C53.3923 27.3211 52.9975 26.968 53.3939 26.786C53.5564 26.9948 53.5426 27.2936 53.8 27.4566C53.8529 27.2964 53.9058 27.1362 53.9597 26.9728C53.5199 26.9004 53.6901 26.5241 53.661 26.2475C53.809 26.227 53.8654 26.0299 54.0637 26.1118C54.3589 26.0974 54.0401 26.3935 54.3334 26.3794C54.4169 26.0975 54.7344 26.283 54.8167 26.0024C55.0032 25.7736 54.576 25.8545 54.7625 25.6257C55.0388 25.8599 54.9055 25.2846 55.1111 25.3811C55.2025 25.5612 55.2915 25.7405 55.3825 25.9188C55.0047 26.4095 55.2831 26.5612 54.8729 26.9164C55.7483 27.2158 55.4855 25.9641 55.516 25.5148C55.7238 25.5678 55.6512 25.7614 55.7585 25.8644C55.6963 26.0528 55.6341 26.2411 55.5717 26.4303C55.8633 26.6496 55.8853 26.3388 56.1094 26.4292C56.1041 26.2065 55.9662 26.0517 56.1623 25.7282C56.3233 25.7813 56.4851 25.8347 56.6469 25.8882C56.8735 25.4828 56.5064 25.3737 56.3494 25.1615C56.6068 25.23 56.572 24.7132 56.7788 24.6775C56.8585 24.7038 56.9398 24.7307 57.0203 24.7572C56.8775 25.0533 56.9904 25.2206 57.1846 25.3489C57.2459 25.0268 57.4352 24.9575 57.6674 24.9709C57.8539 24.7421 57.4242 24.823 57.6114 24.5944C57.8327 24.5886 57.9895 24.4497 58.3117 24.6471C58.2586 24.8081 58.2052 24.9699 58.152 25.1309C58.9486 25.1096 59.1236 23.8525 59.9792 23.9417C60.0124 23.5653 60.2169 23.5236 60.3525 23.349C59.9171 23.2529 59.6841 23.0581 59.8662 22.6511C60.4457 22.9984 60.4662 22.2355 61.1047 22.7012C61.4011 22.2365 61.0244 22.1121 61.049 21.7857C61.2157 21.4489 61.6496 21.6416 61.7736 21.2188C61.7517 21.0278 61.5104 20.9473 61.5824 20.7084C61.6902 20.744 61.7981 20.7796 61.9067 20.8155C61.8783 20.9647 61.692 21.1927 61.9619 21.1917C62.0179 20.5601 62.9036 21.1724 62.9842 21.3507C63.0437 20.7558 63.3874 20.7228 63.6273 20.4873C63.5678 20.1583 63.5438 20.2309 63.7875 20.002C63.3821 19.7754 63.2741 20.1419 63.0614 20.3005C62.8085 20.1581 62.2773 20.1552 62.2004 19.9261C62.2441 19.8356 62.2625 19.6909 62.3601 19.7101C62.4357 20.1191 62.5808 19.685 62.9267 19.8972C62.8601 19.7235 62.8287 19.1888 63.112 19.063C63.0407 19.6861 63.481 19.2819 63.9475 19.5174C64.0183 18.9644 64.3638 19.3567 64.486 19.5167C64.5751 19.247 64.6643 18.9766 64.7531 18.7078C64.9133 18.7607 65.0767 18.8146 65.2369 18.8675C65.3 18.5451 65.4903 18.4779 65.7215 18.4892C65.9059 18.2615 65.4798 18.3418 65.6663 18.113C66.0721 18.2964 66.269 18.0624 66.364 17.6274C66.2467 17.5731 66.0567 17.558 66.0681 17.4396C66.3536 17.4281 66.4577 17.0525 66.7392 17.0345C66.7345 17.2167 66.4237 17.5518 66.7418 17.5728C66.8353 17.0454 67.1767 17.0117 67.3848 16.7094C67.2778 16.6741 67.1683 16.6379 67.062 16.6028C67.0075 16.7183 66.9911 16.9096 66.8744 16.898C66.5526 16.6782 67.0183 16.0605 66.5752 15.9038C66.5208 16.0211 66.5055 16.2119 66.387 16.2005C66.1064 15.8297 65.7388 16.0506 65.228 15.6393C65.0097 15.9304 65.3189 15.9519 65.2308 16.1768C64.7981 16.0356 64.2573 15.9489 64.3675 15.5337C64.8167 15.8008 64.8327 15.2089 65.2817 15.4767C65.3763 15.3502 65.3406 14.9701 65.5229 15.019C65.634 15.1657 65.3848 15.4926 65.8202 15.476C65.8785 15.1 66.0571 14.9657 66.2748 14.9101C66.5603 15.1483 66.5673 15.5259 67.0045 15.6876C66.8626 16.0282 66.9725 16.2439 67.3288 16.3329C67.4387 15.4357 68.3129 16.0537 68.5383 15.387C68.5166 15.1953 68.2751 15.1155 68.3492 14.8756C68.6887 15.1073 68.7078 14.6976 69.0479 14.9278C68.8691 14.5688 69.2299 13.9382 69.3653 13.4204C69.6559 13.6403 69.6808 13.3286 69.9046 13.4199C69.4774 12.8316 70.1287 12.1478 70.5995 11.856C70.7 11.5806 70.3352 11.5408 70.4367 11.2648C70.813 11.4116 70.9725 11.6688 71.1104 11.9363C70.6335 12.1021 70.3192 12.5921 70.0114 13.0963C70.1264 13.1499 70.3188 13.1657 70.3076 13.2834C70.1253 13.589 69.8756 13.7622 69.4742 13.6366C69.4388 13.7437 69.4035 13.8508 69.3679 13.9586C69.4757 13.9942 69.5836 14.0299 69.6914 14.0655C69.781 13.7076 69.9944 13.5995 70.3352 13.7406C70.4808 13.2288 70.941 13.3339 71.0322 12.7165C70.9167 12.6619 70.7241 12.6469 70.7355 12.5284C70.7801 12.3932 70.8242 12.2596 70.8686 12.1251C71.0304 12.1785 71.1922 12.232 71.3532 12.2851C71.3888 12.1773 71.4247 12.0686 71.46 11.9616C70.9763 11.8096 70.8007 11.2177 71.2428 10.9919C70.948 11.0055 71.268 10.7107 70.9732 10.7243C70.8176 10.6547 70.5273 10.9775 70.4615 10.6464C70.7972 10.622 70.783 10.1215 70.702 9.9179C70.8519 9.9943 70.8981 9.8622 70.9982 9.8372C70.9315 10.0734 71.4277 10.0249 71.2947 10.2939C71.6757 10.0929 71.6702 10.5557 72.2638 10.6139C72.6233 10.0738 72.0282 10.0152 72.2603 9.5379C71.9086 9.713 71.1901 9.3952 71.3985 8.8954C71.2367 8.842 71.0749 8.7886 70.9123 8.7349C70.7544 9.221 70.2081 8.941 70.1096 9.5438C70.3994 9.7634 70.4222 9.4528 70.646 9.5415C70.4698 9.9938 70.4161 10.6868 69.9493 10.5648C70.0025 10.4038 70.0556 10.2428 70.1091 10.081C69.8208 9.8619 69.7962 10.1727 69.5726 10.0833C69.4296 10.3117 69.8183 10.2736 69.5994 10.5403C69.3217 10.7121 68.9268 10.963 68.7123 10.5152C68.6712 10.6108 68.6246 10.6995 68.4977 10.6246C68.408 10.849 68.7173 10.8731 68.4987 11.1623C68.7144 11.2336 68.9293 11.3045 69.1458 11.376C68.9591 11.6056 69.3857 11.5237 69.1992 11.7525C68.8764 11.6459 68.5536 11.5393 68.2308 11.4327C68.1599 11.6477 68.0889 11.8626 68.0174 12.0791C67.9096 12.0435 67.8017 12.0079 67.6938 11.9723C67.5076 12.2003 67.9335 12.1207 67.7488 12.3493C67.4347 12.2611 67.3883 12.7035 66.994 12.4589C66.9589 12.9197 66.5744 12.6956 66.4581 12.9979C66.9469 13.1792 67.3734 12.6777 67.644 13.21C67.715 12.9951 67.7862 12.7794 67.8574 12.5637C68.2499 12.6352 68.6281 12.474 68.8258 12.8834C68.96 12.7474 69.0918 12.6081 69.2288 12.4791C69.3199 12.6574 69.4105 12.8372 69.4987 13.0163C69.173 13.5146 68.7008 13.7999 68.1823 13.2101C67.9505 13.5496 68.3613 13.5682 68.1296 13.9078C68.2876 13.8992 68.7082 13.7356 68.8012 14.042C68.4677 14.0783 68.576 14.388 68.6152 14.6055C68.5081 14.5701 68.4002 14.5345 68.2924 14.4989C68.6233 13.9745 67.6302 14.1156 67.86 13.6402C67.54 13.8084 66.9856 13.511 66.5141 13.3743C66.4894 13.5673 66.5619 13.71 66.7308 13.8048C66.9581 13.9907 66.878 13.5638 67.107 13.7495C67.0892 14.1606 66.7497 13.9315 66.7313 14.3414C67.0895 14.4328 67.1981 14.6472 67.0569 14.9881C67.3314 15.2226 67.1996 14.6478 67.4063 14.7437C67.497 14.7893 67.6405 14.8063 67.6223 14.9061C67.5251 15.1609 67.3243 15.2073 67.1921 15.3924C66.8931 14.9357 65.8977 14.829 66.3007 14.0207C66.1264 13.8843 66.0842 13.6814 65.7085 13.6458C65.6474 13.9229 66.099 13.9437 66.0579 14.2101C66.0167 14.571 65.8154 14.6163 65.6293 14.697C65.4886 14.5639 65.5681 14.3231 65.332 14.24C65.2697 14.4734 65.0071 14.3078 65.01 14.6719C65.127 14.7244 65.3191 14.7411 65.3083 14.858C65.2004 14.9142 65.0939 14.9692 64.985 15.0208C64.8601 14.9709 64.989 14.7933 64.7953 14.7787C64.7524 14.8747 64.7086 14.9625 64.5809 14.8874C64.3944 15.1162 64.8215 15.0353 64.6353 15.2633C64.2744 15.1277 64.2324 15.6252 64.0194 15.7768C63.8935 15.7274 64.0224 15.5498 63.8295 15.5355C63.7585 15.7504 63.6873 15.9662 63.6158 16.1827C63.7418 16.2763 64.1222 16.2398 64.0741 16.4224C64.029 16.5141 64.0117 16.6558 63.9125 16.6386C63.8442 16.5146 63.8435 16.3593 63.5632 16.3421C63.5181 16.7883 63.3019 16.8972 62.9168 16.6669C62.8453 16.8834 62.7743 17.0984 62.7031 17.3141C62.9788 17.4164 63.0207 17.0505 63.2961 17.151C63.023 17.4899 63.4342 17.4861 63.4852 17.6624C63.4589 17.7422 63.432 17.8234 63.4055 17.9039C63.0182 17.8298 62.7934 17.6733 62.65 17.4751C62.4693 17.6521 62.2057 17.663 61.8978 17.5847C62.0488 17.8729 61.8563 18.6345 61.4153 18.5028C61.2802 18.9748 61.9033 19.0644 61.5801 19.6311C61.9197 19.7077 61.9368 19.9474 62.147 20.0879C62.0648 20.1899 62.1032 20.5354 61.932 20.4659C61.8744 20.2466 61.6515 20.1106 61.689 19.8474C61.4678 19.8532 61.3115 19.9906 60.9884 19.7955C60.9544 20.1717 60.7499 20.2134 60.6132 20.3884C60.7211 20.424 60.8289 20.4596 60.9368 20.4953C61.0309 20.3677 60.995 19.9883 61.177 20.0354C61.3493 20.2986 60.9845 20.6263 60.8029 20.6305C60.463 20.4472 60.2463 20.5074 60.0221 20.5512C59.9497 20.7076 60.2745 20.9969 59.9444 21.0621C59.9306 20.8651 59.707 20.7783 59.4309 20.714C59.2953 21.0749 59.792 21.1167 59.9436 21.3323C59.6852 21.2643 59.7203 21.7803 59.5145 21.8155C59.4348 21.7892 59.3543 21.7626 59.273 21.7358C59.3256 21.5763 59.3793 21.4138 59.4327 21.252C59.1566 21.1513 59.1154 21.5173 58.8411 21.4164C58.8919 20.8949 59.2715 21.0211 59.3218 20.4985C58.9265 20.6064 58.6005 20.8507 58.3549 21.2558C57.7205 21.0247 57.7878 21.5271 57.7653 21.9574C57.3161 21.6877 57.1933 22.0676 56.7428 21.7992C56.6684 22.1846 56.5128 22.4115 56.3136 22.5529C56.4016 22.7562 56.7441 22.8294 56.881 23.0081C56.7544 23.6068 56.2577 23.4653 56.1569 24.1142C56.3131 24.1848 56.6026 23.8618 56.6691 24.1932C56.5373 24.3351 56.2948 24.2559 56.2122 24.4904C56.3811 24.5852 56.4533 24.7287 56.4291 24.92C56.1065 24.8577 56.0372 24.6684 56.0504 24.437C55.7281 24.2422 55.5713 24.3785 55.3509 24.3846C55.7372 23.9522 55.5675 23.852 55.724 23.2544C55.563 23.2013 55.4004 23.1476 55.2402 23.0947C55.2111 23.3928 55.0674 23.4658 54.8093 23.3104C55.2022 23.7478 54.7574 23.8194 54.84 24.3069C54.4425 24.3846 54.4827 24.6067 54.4103 24.7917C54.3428 24.668 54.3403 24.5129 54.0599 24.4957C53.8148 24.8889 54.2574 24.9371 54.169 25.2495C53.8994 25.1604 53.6305 25.0717 53.3609 24.9826C53.3965 24.8748 53.4319 24.7677 53.4675 24.6598C53.0633 24.3903 52.9675 24.7357 52.6062 24.554C52.7595 24.8378 52.458 25.3493 52.6085 25.6313C52.3135 25.6189 52.2267 26.0314 51.992 26.1437C51.9016 26.1 51.7579 26.0811 51.7758 25.9822C51.8063 25.6403 52.124 25.8727 52.1255 25.4718C51.7299 25.5778 51.4031 25.8219 51.1578 26.2289C51.7134 26.1947 51.1558 26.7231 51.6179 26.7361C51.8174 26.867 51.6847 26.3369 51.8847 26.4688C51.9652 26.4954 52.0465 26.5223 52.1277 26.5491C52.0115 26.9432 52.1055 27.2308 52.3721 27.4341C52.2684 27.5854 52.2969 27.9978 52.1045 27.9742C52.0722 27.7884 52.0495 27.5972 52.0219 27.4078C51.7473 27.3076 51.7072 27.6731 51.4321 27.5719C51.5739 27.2763 51.4604 27.108 51.2693 26.9807C51.2139 27.0959 51.1981 27.2883 51.0796 27.277C50.8959 27.0169 50.91 26.9609 51.1591 26.7658C51.0512 26.7302 50.9442 26.6948 50.8363 26.6592C50.7435 26.7855 50.7774 27.1659 50.5958 27.1172C50.48 27.04 50.6101 26.8402 50.3251 26.8476C50.2221 26.9548 50.0288 26.8841 49.9768 27.0914C49.7903 27.3202 50.2172 27.2401 50.0317 27.4684C50.3249 27.208 51.6114 27.2939 51.2721 28.0565C50.6753 27.9973 50.7211 27.6145 50.1927 27.5215C50.1232 27.6771 50.446 27.9675 50.1132 28.0327C49.8088 27.4138 49.2755 28.3333 48.6342 27.9023C48.5808 28.0641 48.5271 28.2267 48.4737 28.3885C48.3112 28.3348 48.1502 28.2816 47.9884 28.2282C47.953 28.6031 47.7506 28.6464 47.6142 28.8206C47.9083 28.8068 47.5887 29.1026 47.8836 29.089C48.2622 28.5934 48.7486 28.3067 49.2806 28.1157C49.2429 28.5765 48.8594 28.352 48.7444 28.6555C48.6421 28.9312 49.0084 28.9715 48.9069 29.2474C48.6717 29.1854 48.8391 28.9225 48.474 28.9259C48.2617 29.2589 48.0786 29.6561 47.7512 29.763C47.6745 29.436 47.602 29.6504 47.3471 29.6295C47.4008 29.467 47.4542 29.3052 47.5074 29.1442C47.2917 29.073 47.0744 29.0012 46.8595 28.9303C46.5479 29.4697 45.772 29.0869 45.5172 29.7404C45.7818 29.729 46.0078 29.6432 46.2693 29.6308C46.1978 29.8473 46.1271 30.0614 46.0557 30.2779C46.1832 30.372 46.5644 30.3384 46.5152 30.5189C46.3954 30.6822 46.0511 30.4021 45.8428 30.3871C45.8532 30.6497 45.9397 30.8758 45.9524 31.1392C46.2752 31.3351 46.4307 31.1975 46.6512 31.1914C46.3039 31.6132 46.9619 31.5288 47.0031 31.7557C46.3666 32.1817 45.6558 31.2762 45.0901 31.0339C45.0572 31.3698 44.8395 31.3386 44.687 31.4382C44.5731 31.3633 44.7037 31.162 44.4177 31.1699C43.9568 31.4 43.5033 31.7261 43.0455 31.2542C42.9852 31.8488 42.6438 31.8826 42.4022 32.1183C42.5584 32.5114 42.3221 32.3346 42.189 32.7639C42.3163 32.8588 42.697 32.8241 42.6475 33.0054C42.5366 33.3675 42.2438 33.3645 41.868 33.1953C41.7663 33.472 42.1326 33.5123 42.0303 33.788C41.6905 33.7356 41.4907 33.9626 41.2239 34.0592C41.3159 33.5313 41.7787 33.5368 41.5444 33.0885C41.6523 33.1241 41.7594 33.1594 41.868 33.1953C41.8641 32.8317 42.1277 32.9994 42.189 32.7639C41.8249 32.7694 41.9912 32.5044 41.7579 32.4421C41.4945 32.9905 40.8154 32.7134 40.3601 32.8768C40.1731 33.1072 40.6005 33.0256 40.4132 33.2541C40.6442 33.3971 40.6062 33.0084 40.872 33.227C40.8914 33.373 41.0889 33.4312 41.0077 33.6298C40.7865 33.6356 40.631 33.7733 40.3067 33.5769C40.2822 33.769 40.356 33.913 40.5229 34.0062C40.7535 34.1925 40.6724 33.7661 40.9012 33.9526C40.6581 34.2372 41.1489 34.4938 40.7685 34.6247C40.5474 34.1972 40.2933 34.5701 39.933 34.1703C39.9195 34.5368 40.175 34.7685 39.9353 35.2476C40.1681 35.3852 40.4042 34.8538 40.5009 35.1648C40.3309 35.3175 40.0367 35.2239 39.9889 35.6233C40.3508 35.6483 40.5283 36.1108 40.2346 36.2418C39.8925 36.2121 40.123 35.8921 39.7222 35.8932C39.6399 36.6227 39.1064 36.4561 38.5404 36.2198C38.576 36.112 38.6116 36.0041 38.6472 35.8962C38.5378 35.8601 38.4307 35.8248 38.3229 35.7892C38.1252 36.1122 38.2646 36.2674 38.2712 36.4889C37.7018 36.0322 37.3672 36.7434 37.0585 36.3581C37.0885 36.0152 37.408 36.2472 37.4079 35.8459C36.9811 36.0543 36.9578 35.7467 36.8157 35.471C36.5759 35.7931 36.9692 35.7964 36.7891 36.0897C36.5938 36.059 36.5747 36.3769 36.4139 36.4148C36.0702 36.4296 36.3322 36.1399 36.0625 36.1194C36.0269 36.2272 35.9913 36.3351 35.9562 36.4414C36.1327 36.5551 36.5754 36.5349 36.5757 36.7361C36.1946 36.7012 35.785 36.9231 36.0129 37.3563C35.8867 37.2635 35.5055 37.2971 35.5549 37.1158C35.7517 37.1054 35.8406 36.8808 35.9025 36.6039C35.7665 36.5382 35.4716 36.5518 35.6334 36.3348C35.409 36.2451 35.3852 36.5562 35.0952 36.3374C35.0367 37.0054 34.2532 36.8004 34.56 37.4149C34.2055 37.2441 33.9311 37.235 33.6987 37.309C33.6333 37.8483 33.2824 37.8217 33.0283 37.9848C32.9035 37.9349 33.0326 37.7565 32.8389 37.742C32.7975 37.8384 32.7522 37.9257 32.6234 37.8511C32.4804 38.0795 32.8702 38.041 32.6521 38.3078C32.4326 38.3662 32.3002 38.5886 32.0341 38.5519C31.7657 38.53 32.0269 38.2401 31.6824 38.2572C31.5068 38.3978 31.2481 38.373 31.1199 38.6089C31.2574 38.8303 31.0137 39.2456 31.2024 39.4431C30.7532 39.4413 31.3215 39.8569 30.9353 39.9816C30.8398 39.6935 30.5867 39.4834 30.5829 39.1484C30.4051 39.2432 30.1004 39.0845 29.9907 39.3117C30.1675 39.4247 30.6104 39.4037 30.6097 39.6054C30.5423 39.87 30.3592 39.9101 30.1535 39.9029C29.8602 39.917 30.179 39.6209 29.8841 39.6345C29.6803 39.7215 29.6066 40.0656 29.4277 40.2006C29.0893 40.0178 28.8732 40.0791 28.6482 40.1227C28.5347 40.2984 28.5544 40.7427 28.3535 40.7422C28.2733 40.2945 27.9556 40.6715 27.6258 40.5019C27.5546 40.7177 27.4834 40.9334 27.4122 41.1491C27.1229 40.9279 27.0996 41.24 26.8752 41.1504C26.6895 41.3794 27.1159 41.2983 26.9294 41.5271C27.1941 41.5157 27.4195 41.4289 27.6818 41.4167C27.607 41.5671 27.7391 41.6133 27.7649 41.7137C27.6168 41.7315 27.5586 41.929 27.3616 41.8483C27.4795 42.221 27.3544 42.0696 27.1747 42.4142C27.2516 42.7117 27.3451 43.0009 27.418 43.2997C27.2586 43.2471 27.0952 43.1932 26.935 43.1403C27.2823 42.7184 26.6215 42.8036 26.5826 42.5775C26.795 42.0444 26.4447 41.7926 26.2299 41.4747C25.8659 41.9101 25.4381 42.2213 24.7782 42.0701C24.4596 42.6359 24.7165 42.9105 24.5137 43.4173C24.6871 43.6245 25.281 43.9706 24.8653 44.2502C24.4289 43.9103 24.3015 43.4114 24.1349 42.9343C23.8741 42.9496 23.6584 43.0569 23.4906 43.2581C23.7149 43.3478 23.7385 43.0374 24.0283 43.2571C23.8575 43.6115 23.8474 43.8864 23.9243 44.1181C24.2343 44.1373 25.116 44.4283 25.378 44.5981C25.4318 44.1201 26.0912 44.1497 26.2115 44.2475C25.953 44.4343 25.6393 44.589 25.8087 44.9214C25.3539 44.9204 24.8953 44.8946 24.5964 44.5212C24.3124 44.4889 24.2597 44.9188 24.0608 45.0594C23.8854 44.992 24.1386 44.7055 24.1403 44.5482C23.6871 44.364 23.2688 44.2449 23.1713 44.7657C23.3079 44.8325 23.6035 44.8192 23.4412 45.0351C23.0356 44.8067 22.9286 45.1753 22.7146 45.3326C22.5733 45.1568 22.5079 44.9428 22.6868 44.6057C22.4304 44.3347 22.2254 44.8296 22.1754 44.527C22.3231 44.5073 22.3801 44.3112 22.5787 44.3923C22.6504 44.1751 22.7214 43.9601 22.7926 43.7444C22.3989 43.5009 22.352 43.9422 22.0394 43.8546C22.1127 44.0868 22.1044 44.3614 21.9328 44.7156C21.7726 44.6627 21.61 44.6091 21.4498 44.5561C21.2992 44.9806 21.596 44.9797 21.2364 45.2025C21.3312 45.2434 21.418 45.2902 21.3432 45.4172C21.5691 45.5074 21.5906 45.1955 21.8819 45.4157C21.7936 45.8199 21.6206 46.0575 21.2645 45.9286C21.2369 45.5606 20.7038 45.4479 20.7502 45.042C21.3285 45.3855 21.1556 44.2397 21.5566 44.2326C21.0176 43.9671 20.9647 44.6629 20.4257 44.3974C20.4296 44.761 20.1662 44.5952 20.1039 44.8286C20.2407 44.963 20.3792 45.0946 20.5082 45.2316C20.2329 45.4406 19.8113 45.363 19.7305 45.9595C19.9234 46.0865 20.0356 46.2561 19.8938 46.5517C19.732 46.4983 19.5702 46.4449 19.4092 46.3917C19.4446 46.2846 19.4802 46.1768 19.5158 46.0689C19.2263 45.8485 19.2024 46.1596 18.9781 46.0699C18.7916 46.2987 19.2179 46.2176 19.0315 46.4464C18.6492 46.3756 18.5196 46.7524 18.6578 47.0398C18.5056 46.9627 18.4617 47.0956 18.3616 47.1206C18.2195 46.8448 18.2115 46.6117 17.8489 46.7728C18.0693 46.4832 17.7582 46.4594 17.8479 46.235C18.0636 46.3063 18.2793 46.3775 18.495 46.4487C18.3375 46.0543 18.5746 46.2314 18.7084 45.8023C18.3838 45.6068 18.2286 45.7436 18.0081 45.7497C17.8116 46.2057 17.5565 46.5479 17.339 46.9624C17.4931 46.5036 16.8272 46.4571 16.3944 46.2925C16.4069 46.5567 16.4939 46.7813 16.504 47.0447C16.1632 46.8142 16.1464 47.2248 15.8043 46.993C15.7035 47.2692 16.0691 47.3093 15.9676 47.5852C15.6451 47.3886 15.489 47.5278 15.2678 47.5336C15.2053 47.2503 15.1904 46.9438 14.7815 46.8356C14.6667 47.3195 14.5897 47.0462 14.4052 46.8908C14.4046 47.2919 14.0866 47.0604 14.0558 47.403C14.3877 47.7761 13.6086 47.9227 13.925 48.3453C13.6497 48.1105 13.7828 48.6841 13.5754 48.5878C13.4847 48.5449 13.342 48.5255 13.3589 48.4271C13.8445 48.3239 13.3674 47.9445 13.6525 47.5377C13.233 47.3697 13.2321 48.0394 12.9835 48.2121C12.842 48.0813 12.9199 47.8401 12.6867 47.7562C12.5116 48.0347 12.2074 48.0556 12.0953 48.458C12.4833 48.6113 12.504 48.9188 12.9027 48.7246C12.6846 49.0149 12.9941 49.0382 12.9052 49.2628C12.6766 49.1206 12.7146 49.5093 12.448 49.2904C12.236 49.0609 12.3486 48.6673 11.8801 48.5664C11.827 48.7274 11.7735 48.8892 11.7204 49.0502C11.8479 49.1443 12.227 49.1091 12.1794 49.2927C11.9939 49.3242 11.8027 49.3469 11.6135 49.3737C11.5426 49.5887 11.4708 49.8059 11.4004 50.0193C11.6289 50.2066 11.5488 49.7797 11.7769 49.9659C11.6458 50.1948 11.6514 50.6951 11.4295 50.7475C11.2968 50.4774 11.1872 50.1951 11.2923 49.8059C11.002 49.5853 10.9792 49.8958 10.7548 49.8062C10.8305 49.4246 10.9973 49.2188 11.2908 49.2672C11.4484 48.8737 11.5717 48.4975 11.2345 48.3532C11.0028 48.6928 11.4125 48.7119 11.1824 49.052C10.6966 49.0268 10.8248 48.6938 10.4284 48.6236C10.3928 48.7315 10.3572 48.8393 10.3216 48.9472C10.4376 49.0002 10.6289 49.0166 10.6176 49.135C10.5335 49.2373 10.5738 49.5826 10.4029 49.5123C9.89726 49.4762 9.95336 49.1541 9.56786 49.0563C9.53176 49.1657 9.49686 49.2712 9.46126 49.3791C9.68906 49.5661 9.60896 49.1392 9.83856 49.3259C9.74416 49.4517 9.77986 49.8318 9.59566 49.7832C9.24166 49.7816 9.51956 49.4625 9.16506 49.4624C8.87816 49.6936 8.52106 49.788 8.25291 50.0566C8.02883 49.8795 8.01337 50.1179 7.8754 50.1105C7.76014 50.0343 7.8905 49.8338 7.60578 49.843C7.22145 50.0619 6.96014 50.5226 6.58471 50.7592C6.47102 50.6835 6.60085 50.4845 6.31508 50.4916C6.22959 50.7217 5.85878 50.3877 5.8047 50.6828C6.14185 50.7144 6.10994 50.9318 6.20954 51.0843C6.10324 51.1411 5.99669 51.196 5.88778 51.2476C5.772 51.1704 5.9013 50.9704 5.61867 50.9785C5.30412 51.1147 5.14138 51.5498 4.56977 51.1704C4.43716 51.3988 4.44223 51.9006 4.22192 51.9509C4.07969 51.8199 4.15969 51.5776 3.92364 51.4945C3.70401 51.7843 4.01433 51.8078 3.92543 52.0325C3.7092 51.8709 3.7228 52.1658 3.65655 52.3034C3.19529 52.0098 3.25022 52.7439 2.85021 52.5746C2.88634 52.4651 2.92195 52.3573 2.95679 52.2518C2.72588 52.2371 2.53685 52.3055 2.47426 52.629C2.79704 52.8248 2.95177 52.687 3.17299 52.6811C3.01718 53.0821 2.72922 53.2272 2.31427 53.1135C2.54495 52.7719 2.13522 52.7554 2.36486 52.4143C2.02402 52.1839 2.0067 52.5933 1.66534 52.3619C1.47911 52.5899 1.90678 52.5101 1.72107 52.7391C1.37251 52.5374 1.27339 52.8297 1.04864 52.8751C1.03741 52.6781 0.8128 52.5892 0.5362 52.5265C0.45947 52.9085 0.29347 53.1146 0 53.0662C0.00986 53.3304 0.0977 53.5553 0.10938 53.8192C0.26575 53.8916 0.55478 53.5675 0.6221 53.8992Z" fill="white"/>
<path fill-rule="evenodd" clip-rule="evenodd" d="M34.6715 19.709C34.7793 19.7446 34.8864 19.7799 34.995 19.8158C34.9966 20.1786 34.7356 20.0136 34.6717 20.2465C34.3567 20.2265 34.6642 19.8912 34.6715 19.709ZM35.1522 18.7912C35.4513 18.8197 35.5243 18.9635 35.3679 19.2221C35.2608 19.1868 35.1529 19.1511 35.0451 19.1155C35.081 19.0069 35.1166 18.899 35.1522 18.7912ZM35.0512 20.7298C35.0156 20.8376 34.9798 20.9462 34.9444 21.0533C34.7757 20.9578 34.7043 20.8145 34.7284 20.6232C34.8355 20.6585 34.9434 20.6941 35.0512 20.7298ZM36.6075 19.2717C36.7761 19.3672 36.8484 19.5107 36.8231 19.7026C36.6752 19.6728 36.4464 19.4863 36.4469 19.7578C36.0579 19.5947 36.5589 19.4004 36.6075 19.2717ZM38.0566 18.138C38.0409 18.2853 37.9437 18.2697 37.8429 18.2468C37.6567 18.4749 38.0831 18.3937 37.8968 18.6217C37.7366 18.5688 37.5733 18.5149 37.4131 18.462C37.5809 18.2609 37.7961 18.1525 38.0566 18.138ZM40.6952 18.2923C40.6418 18.4541 40.5886 18.6151 40.5349 18.7777C40.4042 18.7406 40.2386 18.6357 40.1843 18.7503C40.1574 18.8316 40.1306 18.9129 40.104 18.9934C39.7844 18.7353 40.2749 17.9534 40.6952 18.2923ZM42.9499 16.3463C42.654 16.812 43.0299 16.9362 43.0051 17.2634C42.7823 17.1743 42.7574 17.4833 42.4689 17.2649C42.6201 16.8754 42.7476 16.4945 42.6263 16.2395C42.7342 16.2751 42.8421 16.3107 42.9499 16.3463ZM43.6009 18.1761C43.5652 18.2839 43.5299 18.391 43.4943 18.4989C43.1714 18.4373 43.1026 18.2465 43.1147 18.0156C43.2773 18.0692 43.4391 18.1227 43.6009 18.1761ZM43.8171 18.6054C43.9863 18.6994 44.0582 18.8437 44.0338 19.0358C43.8181 18.9646 43.6024 18.8934 43.3874 18.8224C43.4822 18.6535 43.626 18.5805 43.8171 18.6054ZM44.6725 16.558C44.4793 16.4318 44.3669 16.2629 44.5092 15.9658C44.7019 16.0936 44.8161 16.2622 44.6725 16.558ZM44.3538 18.0667C44.2452 18.0308 44.1381 17.9955 44.0302 17.9599C44.0658 17.852 44.1017 17.7434 44.1368 17.6371C44.4357 17.6664 44.5082 17.8091 44.3538 18.0667ZM45.3196 16.7717C45.165 17.0301 45.2357 17.173 45.5361 17.2003C45.4413 17.3718 45.2981 17.4433 45.106 17.4188C45.2609 17.1597 45.1892 17.0172 44.8905 16.9871C44.9832 16.8192 45.1275 16.7472 45.3196 16.7717ZM46.1285 17.577C45.9518 17.3956 45.9409 17.132 46.0186 16.823C46.1956 17.0037 46.2055 17.2679 46.1285 17.577ZM46.3384 15.8547C46.5083 15.9489 46.5806 16.0924 46.5556 16.2835C46.4478 16.2479 46.3407 16.2126 46.232 16.1767C46.2677 16.0688 46.303 15.9618 46.3384 15.8547ZM47.787 14.1817C47.7514 14.2895 47.7158 14.3974 47.6804 14.5045C47.5726 14.4688 47.4655 14.4335 47.3576 14.3979C47.4522 14.2297 47.5956 14.1575 47.787 14.1817ZM49.4007 13.6388C49.3869 13.3448 49.6814 13.663 49.6678 13.3682C50.1533 13.3941 50.0262 13.7292 50.4236 13.7962C50.3699 13.9588 50.3165 14.1206 50.2633 14.2816C49.97 14.0331 49.8488 13.4158 49.4007 13.6388ZM50.1048 15.3049C50.2135 15.3408 50.3206 15.3762 50.4284 15.4118C50.441 15.7072 50.1452 15.3876 50.159 15.6817C49.8894 15.6819 50.0753 15.4547 50.1048 15.3049ZM50.8552 14.1191C50.6998 14.3772 50.7713 14.5204 51.0722 14.5487C50.9772 14.7184 50.8337 14.7906 50.6413 14.767C50.8859 14.3728 50.443 14.3253 50.5317 14.0122C50.6403 14.0481 50.7474 14.0835 50.8552 14.1191ZM50.752 15.5186C50.5828 15.4246 50.5105 15.2811 50.535 15.089C50.7588 15.1776 50.7832 14.8676 51.0712 15.0875C51.0112 15.3216 50.747 15.1555 50.752 15.5186ZM54.9391 12.0619C54.757 12.469 54.99 12.6664 55.4252 12.7607C55.2673 13.0709 54.8896 12.9444 54.6186 13.0326C54.7264 12.7536 54.885 12.4489 54.4561 12.4407C54.637 12.3548 54.6909 12.0155 54.9391 12.0619ZM56.3875 10.3897C56.3521 10.4968 56.3163 10.6054 56.2809 10.7125C56.1731 10.6769 56.0652 10.6413 55.9581 10.6059C56.0521 10.4367 56.1956 10.3645 56.3875 10.3897ZM60.9583 9.0316C60.9229 9.1387 60.8873 9.2465 60.8514 9.3552C60.7436 9.3195 60.6357 9.2839 60.5279 9.2483C60.6229 9.0786 60.7661 9.0072 60.9583 9.0316ZM61.4991 10.1055C61.9075 10.2152 61.9245 10.5208 61.9865 10.8056C61.7096 10.741 61.4837 10.6535 61.4743 10.4562C61.2705 10.4565 61.2915 10.8994 61.1788 11.0754C61.0178 11.0223 60.856 10.9689 60.6942 10.9155C60.9534 10.6266 61.3406 10.5958 61.4991 10.1055ZM62.5707 8.4875C62.6786 8.5231 62.7864 8.5587 62.8943 8.5943C62.9081 8.8884 62.6123 8.5714 62.627 8.8657C62.3568 8.8675 62.542 8.6375 62.5707 8.4875ZM66.2222 5.5716C66.2575 5.4645 66.2931 5.3567 66.3288 5.2488C66.6271 5.2771 66.6991 5.4214 66.545 5.6782C66.4371 5.6426 66.33 5.6072 66.2222 5.5716ZM66.6025 6.5934C66.5488 6.756 66.4959 6.9162 66.4425 7.078C66.2493 6.9518 66.1364 6.7819 66.2781 6.4863C66.386 6.5219 66.4939 6.5575 66.6025 6.5934ZM67.0853 6.2154C67.2542 6.3102 67.327 6.4521 67.302 6.6458C67.1941 6.6102 67.0863 6.5746 66.9784 6.539C67.014 6.4311 67.0499 6.3225 67.0853 6.2154ZM68.8086 6.963C68.773 7.0708 68.7374 7.1787 68.7018 7.2865C68.5536 7.2576 68.3264 7.0716 68.3253 7.3425C68.1566 7.247 68.0854 7.103 68.1094 6.9124C68.4507 7.1412 68.4686 6.7328 68.8086 6.963ZM68.4319 6.4815C68.5811 6.5836 69.0362 6.5363 68.8618 6.802C68.7134 6.6975 68.2583 6.7475 68.4319 6.4815ZM69.7216 5.8308C69.8294 5.8664 69.9373 5.902 70.0451 5.9376C70.0582 6.2314 69.7635 5.9139 69.7765 6.2078C69.5066 6.2088 69.6921 5.9805 69.7216 5.8308ZM71.0138 5.7183C70.9771 5.8293 70.9418 5.9364 70.9064 6.0434C70.5833 5.9801 70.5153 5.7895 70.5284 5.5581C70.691 5.6117 70.8512 5.6646 71.0138 5.7183ZM71.3813 2.975C71.5993 3.3937 71.7281 3.0167 72.0806 3.0256C72.0269 3.1881 71.9735 3.3499 71.9208 3.5094C71.7059 3.4384 71.4902 3.3672 71.2753 3.2962C71.3106 3.1891 71.3462 3.0813 71.3813 2.975ZM72.1902 3.2421C72.4052 3.313 72.6209 3.3843 72.8358 3.4552C72.7743 3.6889 72.5114 3.5215 72.5135 3.8853C72.3533 3.8324 72.1899 3.7785 72.0305 3.7259C72.0842 3.5633 72.1368 3.4039 72.1902 3.2421ZM72.9996 4.0458C73.456 4.1757 73.2574 4.6328 73.4315 4.9061C73.153 4.7994 72.8478 4.6371 72.8404 5.0689C72.7325 5.0333 72.6247 4.9977 72.5176 4.9624C72.7648 4.8307 72.8878 4.4501 72.9996 4.0458ZM74.0777 4.5821C74.3662 4.8004 74.3918 4.489 74.6144 4.579C74.4468 4.7794 74.2313 4.8885 73.9714 4.9041C74.007 4.7962 74.0421 4.6899 74.0777 4.5821ZM74.7787 5.1707C74.7428 5.2793 74.7075 5.3864 74.6719 5.4942C74.5027 5.3976 74.4307 5.256 74.4544 5.0636C74.563 5.0994 74.6693 5.1345 74.7787 5.1707ZM76.4344 0.699598C76.2145 0.990198 76.5248 1.0137 76.4351 1.2381C76.2017 1.1758 76.3678 0.911599 76.0048 0.916599C76.0993 0.745799 76.2425 0.674398 76.4344 0.699598ZM77.0245 0.5373C76.9718 0.6968 76.9182 0.859298 76.8645 1.0219C76.638 0.909798 76.7967 0.605098 76.7017 0.430698C76.8096 0.466398 76.9174 0.502 77.0245 0.5373ZM77.2433 1.5049C77.3448 1.229 76.9779 1.1876 77.08 0.912699C77.4378 1.0023 77.5462 1.2175 77.4058 1.5586C77.0919 1.4697 77.045 1.911 76.6516 1.6667C76.7796 1.4732 76.948 1.3624 77.2433 1.5049ZM76.3413 5.8669C76.6568 5.8852 76.3491 6.2214 76.3418 6.4036C76.1146 6.2176 76.1949 6.6463 75.9653 6.4596C76.1036 6.285 76.3057 6.2426 76.3413 5.8669ZM77.7859 2.5786C77.7502 2.9543 77.5473 2.9965 77.4091 3.171C77.058 2.9927 77.5403 2.4377 77.7859 2.5786ZM76.1859 7.9652C75.891 7.9787 76.2103 7.6837 75.9147 7.6971C76.0488 7.5168 75.9881 6.9499 76.2915 7.1046C76.0209 7.5094 76.3655 7.6049 76.1859 7.9652ZM75.7604 9.7974C75.4795 9.7818 75.4777 9.6244 75.4107 9.5017C75.208 9.5015 75.2282 9.9442 75.114 10.1223C74.9522 9.8903 74.7187 9.6918 74.6286 9.4238C75.0659 9.6193 75.2083 9.2381 75.5176 9.1781C75.8065 9.2796 75.8945 9.4829 75.7604 9.7974ZM74.9044 11.3056C74.94 11.1977 74.9751 11.0914 75.011 10.9828C75.1789 11.0781 75.2514 11.2208 75.2272 11.4121C75.1194 11.3765 75.0115 11.3409 74.9044 11.3056ZM75.2814 11.7889C75.295 12.0837 74.9992 11.7642 75.0138 12.0585C74.7436 12.0603 74.9301 11.8315 74.9586 11.6823C75.0649 11.7174 75.1735 11.7533 75.2814 11.7889ZM76.2419 8.8799C76.4172 9.0158 76.4589 9.2202 76.8361 9.2564C76.7782 9.5892 76.3602 9.2041 76.135 9.2034C76.1706 9.0956 76.206 8.9885 76.2419 8.8799ZM75.3389 13.2424C74.8758 12.9464 74.7519 13.3216 74.4247 13.2993C74.6213 12.9742 74.4816 12.8198 74.4773 12.599C74.6501 12.8607 74.826 12.9187 75.1229 12.8122C75.2921 12.9062 75.3633 13.0502 75.3389 13.2424ZM73.8959 16.5286C73.8597 16.638 73.8246 16.7443 73.7893 16.8513C73.4977 16.632 73.4754 16.9436 73.2508 16.8547C73.0174 16.7924 73.1835 16.5282 72.8201 16.5313C72.8555 16.4243 72.8906 16.318 72.9267 16.2086C73.0956 16.3033 73.1679 16.4468 73.1437 16.6382C73.456 16.7266 73.5037 16.2855 73.8959 16.5286ZM73.3604 17.6068C73.307 17.7686 73.2536 17.9304 73.2004 18.0914C73.0926 18.0558 72.9839 18.0199 72.8776 17.9848C72.8657 17.7217 72.7794 17.4948 72.7662 17.233C73.1782 17.2503 72.9486 17.5888 73.3604 17.6068ZM72.7639 15.6174C73.0531 15.4373 73.4323 15.4307 73.7034 15.2108C73.9662 15.2811 74.0097 15.4619 74.0006 15.6678C73.5093 15.4943 73.3679 16.0144 72.7639 15.6174ZM74.5159 7.5941C74.1754 7.3629 74.157 7.7729 73.8172 7.5419C74.0403 7.294 74.3272 7.5673 74.1382 7.1105C74.3 7.1639 74.461 7.2171 74.6228 7.2705C74.5877 7.3768 74.5513 7.487 74.5159 7.5941ZM78.1166 5.3782C78.2236 5.4136 78.3315 5.4492 78.4394 5.4848C78.4519 5.7776 78.1564 5.4572 78.1705 5.7531C77.9006 5.7542 78.0873 5.5246 78.1166 5.3782ZM72.2361 19.387C72.1283 19.3513 72.0204 19.3157 71.9126 19.2801C72.1985 18.7765 71.3416 18.8489 71.6943 18.3109C72.0488 18.4921 71.8219 18.9667 72.3427 19.0642C72.3071 19.172 72.2723 19.2775 72.2361 19.387ZM70.9973 19.335C70.5778 19.0752 71.244 19.0342 71.2102 18.6902C71.3181 18.7259 71.4259 18.7615 71.5338 18.7971C71.3691 19.0019 71.1633 19.1315 70.9973 19.335ZM71.0004 19.8743C70.891 19.8382 70.7847 19.8031 70.6753 19.767C70.7109 19.6591 70.7462 19.552 70.7819 19.4442C71.0823 19.474 71.1538 19.6173 71.0004 19.8743ZM70.0931 22.6223C69.7806 22.3744 69.8725 21.9228 69.712 21.6002C70.1238 21.6183 69.8942 21.9568 70.3068 21.9752C70.0431 22.149 69.9847 22.3256 70.0931 22.6223ZM71.7584 21.9179C71.3087 22.0095 71.8699 22.4913 71.3835 22.5101C71.6031 22.2203 71.291 22.197 71.3825 21.9724C71.6087 22.1589 71.5299 21.7307 71.7584 21.9179ZM71.7597 22.4549C71.9286 22.5497 72.0003 22.6921 71.9764 22.8853C71.8686 22.8497 71.7607 22.8141 71.6529 22.7785C71.6885 22.6706 71.7241 22.5628 71.7597 22.4549ZM68.0062 27.3099C68.2212 27.3808 68.4369 27.452 68.6526 27.5233C68.4327 27.8138 68.7427 27.8356 68.6549 28.0623C68.4072 27.5549 68.2675 28.1909 67.7928 27.9562C67.5732 28.246 67.8838 28.2688 67.7941 28.4932C67.5602 28.4324 67.7276 28.1696 67.3635 28.1724C67.5112 27.7826 67.2819 27.5847 67.3072 27.2585C67.3949 27.4209 67.9577 27.9032 68.0062 27.3099ZM68.765 29.3511C68.7294 29.459 68.6935 29.5676 68.6579 29.6755C68.2647 29.6063 67.9652 29.7259 67.4738 29.4631C67.6606 29.2361 67.2324 29.3149 67.4194 29.0871C67.5419 29.2463 67.8874 29.6386 67.9592 29.0851C68.1636 29.4793 68.3634 29.2445 68.765 29.3511ZM68.661 30.2148C68.4737 30.4433 68.9001 30.3622 68.7152 30.5915C68.5542 30.5383 68.3908 30.4844 68.2306 30.4315C68.3257 30.2618 68.4691 30.1895 68.661 30.2148ZM67.7483 31.3462C67.7127 31.454 67.6774 31.5611 67.641 31.6713C67.426 31.6004 67.2103 31.5291 66.9946 31.4579C67.1268 31.1809 67.5682 31.5242 67.7483 31.3462ZM66.7242 30.6492C66.1857 30.3847 66.1325 31.0788 65.594 30.8143C65.5938 30.5447 65.821 30.7306 65.9703 30.7591C66.1478 30.4025 66.5019 30.191 66.29 29.7908C66.4829 29.8154 66.6269 29.7416 66.7212 29.5743C66.99 29.663 67.2597 29.7521 67.5285 29.8408C67.3047 30.1986 66.7939 29.9892 66.7242 30.6492ZM65.9311 35.7657C65.896 35.872 65.8604 35.9798 65.8248 36.0877C65.717 36.0521 65.6091 36.0164 65.5012 35.9808C65.5955 35.8135 65.7387 35.7394 65.9311 35.7657ZM65.5519 34.7433C65.6597 34.7789 65.7668 34.8143 65.8746 34.8499C65.8212 35.0117 65.7678 35.1735 65.7147 35.3345C65.5217 35.2075 65.409 35.0394 65.5519 34.7433ZM65.0673 34.5833C65.1938 34.3893 65.3624 34.2777 65.6584 34.4205C65.5307 34.6132 65.3636 34.7254 65.0673 34.5833ZM67.6819 26.6645C67.5002 26.7501 67.4468 27.0905 67.1973 27.0428C67.2596 26.7201 67.4513 26.6516 67.6819 26.6645ZM69.4081 27.9521C69.7644 28.0412 69.8738 28.2559 69.7319 28.5964C69.5709 28.5433 69.4091 28.4899 69.2481 28.4367C69.3013 28.2757 69.3549 28.1131 69.4081 27.9521ZM64.5364 37.2753C64.4286 37.2397 64.3215 37.2044 64.2136 37.1688C64.249 37.0617 64.2849 36.953 64.3202 36.846C64.6183 36.8751 64.6906 37.0185 64.5364 37.2753ZM63.4622 38.3552C62.9314 38.036 62.3455 38.4952 62.385 37.8192C62.5467 37.8726 62.7085 37.926 62.8695 37.9792C62.9402 37.765 63.0117 37.5485 63.0829 37.3328C63.4658 37.3205 62.9176 37.7758 63.2994 37.764C63.2857 37.9579 63.1083 37.8283 63.0592 37.9534C62.9795 38.1949 63.6948 38.0367 63.4622 38.3552ZM61.7437 39.2205C61.4738 39.2215 61.66 38.9935 61.6885 38.8443C61.7964 38.8799 61.9042 38.9155 62.0113 38.9509C62.0249 39.2457 61.7293 38.9254 61.7437 39.2205ZM62.8263 41.3705C62.7907 41.4783 62.7551 41.5862 62.7195 41.694C62.6101 41.6579 62.5038 41.6228 62.3951 41.5869C62.4907 41.4183 62.6334 41.3458 62.8263 41.3705ZM62.8281 41.9084C62.7923 42.0171 62.7564 42.1257 62.7213 42.232C62.6134 42.1964 62.5056 42.1608 62.3985 42.1254C62.4922 41.957 62.6357 41.8848 62.8281 41.9084ZM63.4556 35.6634C63.3841 35.8799 63.3129 36.0956 63.2417 36.3113C63.0787 36.033 63.1957 35.6157 63.0239 35.3432C63.3886 35.3387 63.2207 35.6031 63.4556 35.6634ZM72.4741 8.8901C72.3378 8.8251 72.0432 8.8379 72.2042 8.6233C72.4961 8.8418 72.5181 8.531 72.744 8.6212C72.7561 8.9156 72.46 8.5968 72.4741 8.8901ZM29.507 20.6916C29.6695 20.7453 29.8297 20.7982 29.9923 20.8519C29.9391 21.0129 29.8857 21.1747 29.8323 21.3365C30.0603 21.5227 29.9805 21.095 30.2093 21.2815C30.2151 21.5027 30.3535 21.6585 30.1569 21.981C30.2647 22.0166 30.3726 22.0522 30.4805 22.0879C30.6654 21.8585 30.239 21.9397 30.425 21.7124C30.5868 21.7659 30.7478 21.819 30.9103 21.8727C30.964 21.7101 31.0174 21.5483 31.0709 21.3866C31.5122 21.7299 31.3822 20.9346 31.8235 21.278C31.9325 20.8693 32.2393 20.8536 32.5202 20.7903C32.4236 21.3114 31.9503 21.0832 31.7704 21.439C32.1251 21.609 32.4 21.6191 32.6309 21.5445C32.7736 21.3143 32.3846 21.3531 32.6036 21.0865C32.7498 21.0663 32.8083 20.8707 33.0063 20.9508C32.9707 21.0587 32.9351 21.1665 32.8995 21.2744C33.6735 21.445 34.0522 21.414 34.6776 21.8615C34.7726 21.3373 35.2316 21.5356 35.5371 21.4267C35.4189 21.0548 35.5437 21.207 35.7236 20.8616C35.7384 20.473 34.9652 20.4812 35.1013 20.0295C35.4998 20.3214 35.8629 19.8519 36.0996 20.2689C35.9029 20.2794 35.814 20.504 35.7502 20.7811C36.145 20.9401 36.5217 21.0619 36.666 20.7246C36.5281 20.6592 36.2333 20.6728 36.3956 20.4568C36.8564 20.4945 36.6318 20.8754 36.9359 20.994C37.2066 20.9066 37.5836 21.0328 37.7414 20.7226C37.6558 20.5409 37.3165 20.487 37.3627 20.2396C37.7166 20.4041 37.981 20.3935 38.1166 20.1297C37.794 20.0674 37.7268 19.877 37.7392 19.6453C37.9774 19.1416 38.7013 19.5955 38.8668 18.942C38.7405 18.8492 38.3598 18.8838 38.4088 18.7015C38.7163 18.7337 38.9018 18.521 39.1883 18.5116C39.1673 18.8141 39.415 18.98 39.4876 19.238C39.1956 19.2378 39.1663 19.7595 39.0311 20.0719C39.4947 20.3689 39.5118 19.779 39.8377 19.8C39.9282 19.5759 39.6163 19.5544 39.8375 19.2625C40.3571 19.3162 40.0176 19.8013 40.538 19.8526C40.7756 19.5532 40.0827 19.7222 40.322 19.4225C40.698 19.4573 40.7399 19.661 40.915 19.7977C40.9129 19.5283 41.1409 19.7145 41.2912 19.7425C41.287 19.3797 41.5504 19.5455 41.6119 19.3119C41.5181 19.2705 41.4297 19.2257 41.5041 19.0977C41.2287 18.9946 41.1873 19.3615 40.9122 19.2602C41.1328 18.9699 40.8225 18.9463 40.9114 18.7217C41.275 18.7178 41.1089 18.982 41.3423 19.0443C41.3966 18.927 41.4122 18.7354 41.5296 18.7473C41.5506 18.8938 41.7478 18.9528 41.6651 19.1509C41.8948 19.2926 41.8567 18.9038 42.1236 19.122C42.3078 19.383 42.2929 19.4388 42.0446 19.6341C42.2682 19.7236 42.2928 19.4127 42.5811 19.6318C42.8097 19.2254 42.4424 19.1197 42.2846 18.9073C42.388 18.7542 42.3601 18.3428 42.5514 18.367C43.019 18.6939 43.3447 19.0909 44.1429 19.2513C44.2359 19.0826 44.3804 19.0099 44.5726 19.0343C44.5654 18.8118 44.427 18.6586 44.6234 18.3343C45.3848 18.551 45.7929 18.0712 46.3174 17.8188C46.5853 18.0364 46.5475 17.6469 46.7749 17.7904C46.739 17.8991 46.7037 18.0061 46.6681 18.114C46.8298 18.1674 46.9908 18.2206 47.1526 18.274C47.1827 17.9754 47.3247 17.9026 47.583 18.0573C47.4613 17.8038 47.5888 17.4256 47.741 17.0329C48.5075 16.9453 48.0718 15.9442 48.5969 15.5247C48.1976 15.5238 48.4276 15.2053 48.0863 15.1759C47.8491 15.4217 47.0957 15.0863 47.2508 14.7214C47.4844 14.8749 47.5804 14.7523 47.7083 14.6931C48.0069 15.1774 48.6646 14.8129 49.0007 15.3885C48.5794 16.0425 48.6246 16.672 48.0101 17.302C48.1851 17.4387 48.2286 17.6429 48.6048 17.677C48.8245 17.3872 48.5134 17.3633 48.603 17.139C48.8955 17.1878 49.063 16.9823 49.139 16.6C49.0241 16.5464 48.8319 16.5298 48.8433 16.4113C49.1017 16.4793 49.0664 15.9641 49.2727 15.9273C49.3289 16.0325 49.3829 16.1396 49.4344 16.2485C49.384 16.3749 49.207 16.2445 49.1924 16.4382C49.2873 16.479 49.3754 16.5246 49.3008 16.6534C49.6418 16.6602 49.8589 16.4225 50.0785 16.1933C50.2046 16.2419 50.0763 16.4206 50.2686 16.4338C50.3908 16.0954 50.7962 16.322 50.9945 16.1361C51.1111 16.2136 50.981 16.4133 51.2636 16.4052C51.3944 16.4397 51.395 16.2198 51.5603 16.3229C51.5856 16.131 51.5128 15.9891 51.3441 15.8936C51.1875 15.8219 50.8977 16.1457 50.8317 15.8128C51.3873 15.7102 51.8909 15.5081 52.5264 15.568C52.6098 15.2315 52.4393 14.6716 52.8206 14.4092C52.9113 14.4547 53.054 14.4715 53.0358 14.5712C52.6604 14.6319 53.0959 15.0903 52.6333 15.2444C52.7411 15.28 52.849 15.3156 52.956 15.351C53.0189 15.0268 53.2092 14.9596 53.4399 14.9725C53.3794 15.2056 53.1147 15.0411 53.1194 15.4049C53.4593 15.4097 53.676 15.1735 53.8976 14.9433C54.2742 15.202 54.3254 14.8133 54.6784 15.0226C54.6253 15.1836 54.5716 15.3461 54.5182 15.5079C55.0088 15.5997 55.0217 15.0093 54.9734 14.6727C55.1588 14.46 55.4878 14.5348 55.861 14.6962C55.9725 14.2823 55.2406 14.2911 55.645 13.7278C55.377 13.5552 55.4254 14.0098 55.3214 14.1592C54.9275 13.822 55.0232 14.4586 54.7308 14.323C54.8476 13.8459 55.2547 13.9387 55.3733 13.4613C55.2563 13.4062 55.0652 13.3916 55.0774 13.2734C55.1112 12.982 55.3306 13.0632 55.4526 12.9483C55.5726 13.2228 56.1363 13.7704 56.5303 13.4827C56.5761 13.7535 57.0552 13.8042 57.1506 14.0481C57.3323 13.6868 56.9869 13.591 57.2559 13.1857C57.5462 13.4064 57.5703 13.0945 57.7944 13.185C57.7475 13.4321 58.0868 13.4861 58.1724 13.6678C58.1583 13.3745 58.4546 13.6925 58.4416 13.3987C58.6275 13.1688 58.1996 13.2494 58.3858 13.0214C58.6655 13.08 59.0838 12.7188 59.2742 13.0452C59.245 13.3883 58.9255 13.1563 58.9254 13.5584C59.3317 13.7402 59.5301 13.5067 59.6244 13.0715C59.4173 13.0187 59.4873 12.8252 59.3808 12.7224C59.6443 12.6672 59.7691 12.334 60.1603 12.5325C60.3471 12.3029 59.9202 12.383 60.1059 12.154C60.2077 12.1789 60.3056 12.1948 60.3208 12.0464C59.9886 12.1022 59.7179 12.2764 59.3522 12.2657C59.7105 11.8683 59.5043 10.9204 60.318 10.9707C60.2939 11.4559 59.9588 11.3288 59.8889 11.7243C59.9975 11.7602 60.1038 11.7953 60.2125 11.8312C60.2689 11.4554 60.4489 11.3224 60.6679 11.2656C61.0413 11.4262 61.3685 11.4986 61.61 11.3972C61.5853 11.5902 61.658 11.7321 61.827 11.8268C61.9966 11.5388 62.1192 11.1597 62.5252 11.3423C62.7456 11.0502 62.4348 11.0282 62.5232 10.8025C62.7984 11.0373 62.6669 10.4643 62.8731 10.5592C63.1636 10.5927 63.0828 10.8139 63.1969 10.9357C62.9999 10.9469 62.911 11.1715 62.8488 11.4491C63.1881 11.4979 63.3161 11.1259 63.6549 11.1762C63.7571 10.9005 63.39 10.8599 63.4921 10.585C63.7819 10.8046 63.8054 10.4943 64.0301 10.5832C64.0329 10.9473 63.7709 10.7802 63.708 11.0152C63.8159 11.0508 63.9237 11.0864 64.0316 11.122C64.0667 10.7453 64.2686 10.7036 64.4076 10.5293C64.2644 10.3304 64.0385 10.1743 63.6521 10.1004C63.5575 10.2686 63.4141 10.3408 63.2227 10.3167C63.4178 9.9936 63.2799 9.8389 63.2741 9.6177C63.5971 9.8127 63.7521 9.6741 63.9733 9.6683C63.7791 9.2695 64.0879 9.2476 64.2399 8.8609C63.8472 8.6168 63.8011 9.0584 63.4877 8.9705C63.5891 8.3695 64.1271 8.6356 64.6174 8.8044C64.4362 9.1667 64.7811 9.2615 64.5118 9.6675C64.7463 9.7293 64.5789 9.9921 64.944 9.9888C65.178 9.7132 64.604 9.8453 64.7012 9.6399C64.9591 9.7068 64.9233 9.1905 65.1293 9.1546C65.1485 9.3013 65.3459 9.3596 65.2642 9.5571C65.48 9.6283 65.6949 9.6993 65.9114 9.7708C65.941 9.4711 66.0847 9.3981 66.3415 9.5548C66.3798 9.0058 66.7549 9.1296 66.9311 8.8532C66.5204 8.8346 66.7495 8.4951 66.3385 8.4773C66.2841 8.5945 66.2688 8.7854 66.1503 8.774C65.9988 8.6711 65.5866 8.6988 65.6108 8.5074C65.6376 8.4262 65.6642 8.3457 65.6913 8.2636C65.907 8.3348 66.122 8.4058 66.3385 8.4773C66.3834 7.8975 67.0335 8.5221 67.1167 8.0183C67.3409 8.0637 66.8915 8.4458 67.2532 8.4213C67.5299 7.9007 68.1695 8.1006 68.5418 7.7711C68.5467 8.1368 68.2821 7.9697 68.221 8.2044C68.4368 8.2756 68.6525 8.3468 68.8674 8.4178C69.0635 8.0942 68.9256 7.9395 68.9188 7.7162C69.0813 7.7698 69.2431 7.8233 69.4049 7.8767C69.5405 7.7022 69.7447 7.6612 69.7793 7.2835C69.4392 7.2085 69.4237 6.9693 69.2119 6.8283C69.2385 6.7478 69.2653 6.6665 69.2922 6.5852C69.6692 6.6196 69.7119 6.8235 69.8856 6.9615C69.8849 6.6908 70.1137 6.8773 70.2637 6.906C70.2881 6.5457 70.7489 6.3685 70.8803 6.6606C70.8972 7.006 70.6081 6.7424 70.5864 7.0126C70.9412 7.1826 71.2161 7.1927 71.4462 7.1179C71.5482 6.843 71.1824 6.8011 71.2826 6.5265C71.4117 6.3325 71.58 6.2216 71.8756 6.3634C72.0637 6.0667 72.2466 5.7622 72.4389 5.4738C72.5194 5.5003 72.5991 5.5267 72.6804 5.5535C72.4618 5.8428 72.7713 5.8661 72.6822 6.0915C73.0055 6.2884 73.1597 6.1495 73.3809 6.1436C73.4756 6.0171 73.4404 5.6354 73.6222 5.6859C73.9259 6.0471 74.2166 6.0096 74.6734 6.033C74.5833 6.6577 73.976 6.2552 73.6513 6.4115C73.6015 6.7513 73.9744 6.8796 73.9241 7.2183C73.9047 6.9147 73.167 6.9701 73.2207 6.629C72.8212 6.8386 72.5306 6.5242 72.4675 6.1983C72.1603 6.7114 72.5351 6.9834 72.1467 7.1698C72.3562 7.4227 72.023 7.9515 72.3647 8.1371C72.203 8.0837 72.0419 8.0306 71.8802 7.9771C71.7102 8.3319 71.6998 8.6075 71.7751 8.8387C72.3703 8.9 72.324 9.2817 72.8529 9.3757C73.1236 9.1175 72.6303 8.913 72.9319 8.8635C72.9436 9.0589 73.1682 9.1478 73.4448 9.2106C73.5336 8.9417 73.6226 8.6721 73.7114 8.4032C73.5939 8.3497 73.4025 8.3333 73.4136 8.2156C73.5622 8.1962 73.6194 7.9993 73.8182 8.0796C74.1131 8.0661 73.7925 8.3624 74.0873 8.3488C74.1812 8.222 74.1468 7.8406 74.3297 7.8905C74.4094 7.9169 74.4899 7.9434 74.5704 7.97C74.3485 8.5555 74.6834 8.0897 75.0023 8.292C74.9438 8.6688 74.7638 8.8018 74.5461 8.8574C74.1721 8.6932 73.8529 8.6389 73.7132 8.9412C73.8281 8.9947 74.0202 9.0114 74.0091 9.1291C73.5211 9.6856 73.7452 10.0465 73.4491 10.8251C73.3413 10.7894 73.2334 10.7538 73.1264 10.7185C73.3498 11.0341 73.0911 11.5892 73.4783 11.8211C73.3074 11.8843 73.2023 12.0767 72.914 11.9026C72.7265 12.3573 72.6875 12.7353 72.9162 12.9799C73.243 12.9196 73.5197 12.5541 73.3449 12.2251C73.4527 12.2607 73.5606 12.2964 73.6684 12.332C73.3309 12.7267 73.9665 12.6289 73.8312 12.9231C73.5354 12.7821 73.3676 12.894 73.2414 13.0872C73.4341 13.3935 72.9967 14.0171 73.1907 14.3247C73.0402 14.2949 72.8117 14.1103 72.8143 14.3807C72.9292 14.4342 73.1221 14.4485 73.1107 14.567C72.8918 14.8336 73.2798 14.7953 73.1376 15.024C72.7071 14.9494 72.8048 14.609 72.6246 14.4065C72.7402 14.0563 72.8556 13.707 72.9712 13.3568C72.8452 13.2632 72.4648 13.2971 72.5135 13.1156C72.5759 12.9264 72.6381 12.7381 72.7003 12.5497C72.4666 12.4882 72.6325 12.2248 72.2697 12.229C72.0319 12.6393 72.237 12.8293 72.3524 13.0624C72.247 13.5234 71.8956 13.4932 71.8436 14.0602C72.035 14.0844 72.1784 14.0121 72.2732 13.8432C72.4594 13.6152 72.032 13.6942 72.219 13.4665C72.3461 13.5595 72.7254 13.5262 72.676 13.7075C72.5421 14.0212 72.2804 14.0787 72.1132 14.3278C72.8474 14.5979 72.2388 15.9372 71.5256 15.5665C71.4725 16.0872 71.0944 15.9616 71.0431 16.4846C71.4249 16.5595 71.6304 16.7271 71.5823 17.0198C71.8593 17.1207 71.8991 16.756 72.174 16.858C72.0093 17.0628 71.8038 17.1917 71.6373 17.3968C71.9599 17.635 71.9632 17.2417 72.2566 17.4218C72.3771 17.6974 72.4433 18.0009 72.6098 18.2552C72.4464 18.2013 72.2862 18.1484 72.1237 18.0947C72.1593 17.9869 72.1949 17.879 72.2305 17.7712C72.009 17.7778 71.8548 17.9167 71.5305 17.7203C71.7172 17.2229 71.301 17.0266 70.9368 16.8066C70.9396 17.1707 70.6773 17.0044 70.6158 17.238C70.7724 17.2282 71.1944 17.0659 71.2877 17.3715C70.9838 17.8614 71.3036 18.0372 71.3176 18.3651C71.1913 18.2723 70.8101 18.3085 70.8593 18.1254C71.0203 17.798 70.9507 17.5861 70.7231 17.4537C70.726 17.8179 70.4639 17.6507 70.4024 17.8844C70.74 18.0063 70.5137 18.4109 70.6993 18.61C70.2041 18.7186 70.6362 19.1213 70.6209 19.391C70.4637 19.3998 70.042 19.5639 69.9487 19.2584C70.0698 19.1909 70.2265 19.1889 70.2429 18.9082C70.1334 18.8721 70.0271 18.837 69.9185 18.8011C69.8946 19.2856 69.5603 19.1587 69.4917 19.5556C69.7189 19.7416 69.6394 19.3131 69.8687 19.5007C69.7905 19.6508 69.9244 19.6967 69.9495 19.7969C69.6127 19.8244 69.5482 20.4766 69.6563 20.6847C69.5469 20.6486 69.4406 20.6135 69.3319 20.5776C69.3676 20.4698 69.4027 20.3635 69.4385 20.2549C69.2113 20.0689 69.2922 20.496 69.0623 20.3101C69.2692 20.7363 68.8896 20.6127 68.6884 20.9043C68.9769 21.1226 69.0021 20.8128 69.2246 20.9028C69.3774 21.1881 69.1849 21.9523 68.7446 21.8182C68.7981 21.6565 68.8515 21.4947 68.9046 21.3337C68.4369 21.4167 68.6529 22.2482 68.908 22.4104C69.0005 22.2824 68.9666 21.9019 69.1479 21.9514C69.2505 22.0347 69.5973 21.9949 69.5254 22.1653C69.425 22.4537 69.222 22.5436 68.908 22.4104C68.8723 22.5183 68.8373 22.6246 68.8011 22.734C69.0161 22.805 69.231 22.8759 69.4467 22.9472C69.3532 23.4745 68.9707 23.4279 68.912 24.0231C68.9984 24.205 69.3385 24.2593 69.2898 24.5067C68.9151 24.3812 68.8976 24.0773 68.3746 24.0259C68.1787 24.3487 68.3155 24.504 68.3227 24.7239C68.2132 24.6877 68.107 24.6527 67.9983 24.6168C68.0278 24.4696 68.2146 24.2401 67.9444 24.2419C67.7627 24.6031 68.1073 24.6987 67.8375 25.1037C67.6456 25.0785 67.5022 25.1507 67.4079 25.3207C67.5338 25.6379 68.2576 25.6559 68.2449 26.0434C68.0494 26.0135 68.03 26.3322 67.8698 26.3686C67.7665 26.285 67.4207 26.3243 67.4907 26.1541C67.6231 26.0132 67.8643 26.0911 67.9485 25.8571C67.4694 25.6175 67.183 25.763 67.0882 26.2891C67.2047 26.3431 67.3963 26.3587 67.3844 26.4761C66.9787 26.5181 67.0851 27.5769 66.554 27.3686C66.4523 27.6427 66.8173 27.6844 66.7171 27.959C66.4912 27.8688 66.4689 28.1804 66.1778 27.9595C66.1244 28.1213 66.071 28.2831 66.0178 28.4441C66.5706 28.5156 66.1775 28.8608 66.0209 28.9834C66.1356 29.0377 66.328 29.0535 66.3169 29.1712C66.2903 29.2517 66.2634 29.333 66.2366 29.4143C66.074 29.3606 65.9138 29.3077 65.7505 29.2538C65.6795 29.4687 65.6085 29.6836 65.5371 29.9001C65.3145 29.8102 65.2899 30.121 64.9993 29.9011C64.8247 30.5351 64.6126 31.0935 64.3049 31.4635C64.5802 31.6982 64.4471 31.1247 64.6543 31.2217C64.7571 31.3042 65.1024 31.2639 65.0305 31.4343C64.9536 31.8614 64.5079 31.5548 64.4672 32.0562C64.7588 32.2755 64.7808 31.9647 65.007 32.0541C64.9533 32.2167 64.9002 32.3777 64.847 32.5387C65.4673 32.6525 65.3479 33.1401 65.8435 33.3167C65.8166 33.398 65.7903 33.4777 65.7637 33.5582C65.4027 33.3783 65.3079 33.7232 64.903 33.4534C65.0034 33.178 64.6379 33.1379 64.7402 32.8623C64.3865 32.697 64.1211 32.7081 63.9857 32.9711C63.8963 33.1973 64.2079 33.2196 63.987 33.5107C63.8799 33.4753 63.772 33.4397 63.6642 33.4041C63.6029 33.9993 63.2214 33.9522 63.1292 34.4808C63.3536 34.5705 63.3772 34.2602 63.667 34.4798C63.7404 34.0395 64.4029 34.0753 64.609 34.3436C64.5827 34.4233 64.5559 34.5046 64.5293 34.5851C64.0495 34.3478 63.8183 34.6017 63.452 34.5874C63.5118 35.1861 63.9983 35.5713 64.8557 35.7677C65.0507 35.4446 64.9131 35.2891 64.9073 35.0679C64.9935 35.2715 65.3383 35.3454 65.4726 35.5241C65.4043 35.9228 65.1487 35.9511 64.9922 36.1707C64.9009 36.1267 64.7557 36.11 64.7754 36.0107C64.8248 35.8849 65.0013 36.0143 65.0167 35.8208C64.4123 35.7348 64.36 36.7464 63.8619 36.8741C63.5179 36.8896 63.7807 36.6002 63.5129 36.5794C63.4699 36.6753 63.4246 36.7626 63.2961 36.6872C63.208 36.9121 63.5178 36.9347 63.2997 37.225C62.9993 37.04 62.6465 37.4366 62.4637 37.0399C62.9963 36.805 63.4536 36.4203 64.1024 36.4161C64.2991 36.0936 64.1607 35.9378 64.1556 35.7168C63.5232 35.6294 63.5467 35.2141 62.9158 35.1272C62.9151 35.5283 62.5972 35.2967 62.568 35.6399C62.4455 36.3942 61.7147 37.2581 61.6341 38.4684C61.5262 38.4328 61.4184 38.3971 61.3105 38.3615C61.2865 38.8043 61.0047 38.7338 60.908 39.0347C61.015 39.1385 60.9442 39.3318 61.1523 39.3841C61.3811 39.5706 61.2992 39.144 61.5285 39.3289C61.3428 39.5579 61.7697 39.4779 61.5837 39.7051C61.4336 39.6295 61.3874 39.7616 61.2872 39.7866C61.1627 39.7386 61.2926 39.5604 61.0991 39.5451C61.024 39.9329 60.8687 40.159 60.6703 40.3006C60.9228 40.3944 61.2112 39.8699 61.3969 40.2709C61.3415 40.3861 61.177 40.2807 61.047 40.2464C60.877 40.6011 60.8663 40.875 60.9414 41.1069C61.166 41.1958 61.1894 40.8863 61.4794 41.1052C61.6949 40.6415 61.9005 40.1555 62.3392 40.134C62.5074 40.2285 62.5796 40.3719 62.5549 40.5649C62.1643 40.325 62.129 40.7866 61.9088 40.8889C62.0777 40.9837 62.15 41.1272 62.1258 41.3186C61.8929 41.2573 62.058 40.9937 61.6946 40.9968C61.6344 41.5914 61.2917 41.6239 61.0508 41.8599C61.515 42.1579 61.6396 41.7804 61.9658 41.8031C61.905 42.037 61.6401 41.8707 61.6451 42.2364C62.079 42.6206 62.1792 42.4509 62.7752 42.6095C63.1191 41.9092 63.512 41.3073 63.8742 40.6408C63.9412 40.766 63.9424 40.9199 64.2236 40.9373C64.4648 40.4587 64.0897 40.1875 64.5443 39.9658C64.3841 39.9129 64.2208 39.859 64.059 39.8055C63.9266 40.0357 63.9335 40.5373 63.7117 40.5871C63.7185 40.338 63.3264 40.2891 63.039 40.1856C63.2578 39.8955 62.947 39.8735 63.0356 39.6471C63.4866 39.7856 63.4784 39.0123 63.8681 39.0266C63.9248 39.1328 63.9796 39.2402 64.0309 39.3499C63.9813 39.4739 63.8047 39.3445 63.7894 39.538C64.1121 39.6445 64.4373 39.7519 64.7601 39.8585C64.7763 39.4469 65.1174 39.6766 65.1334 39.2658C64.5956 39.493 64.4946 38.6934 64.163 38.4063C64.0264 38.5813 63.8237 38.6227 63.7883 39.0002C63.4477 38.7274 63.4532 39.1384 63.2785 39.1899C63.187 39.1467 63.0433 39.1278 63.0617 39.0299C63.2577 39.0166 63.3471 38.793 63.4088 38.5169C63.5174 38.5528 63.6237 38.5879 63.7331 38.624C63.9638 38.2824 63.5538 38.2641 63.7856 37.9245C63.9466 37.9777 64.1083 38.0311 64.2693 38.0842C64.5124 37.7996 64.0221 37.5415 64.4017 37.4103C64.3358 37.6702 64.85 37.6328 64.8873 37.8402C64.638 37.8341 64.5883 38.226 64.4858 38.5128C64.6603 38.6511 64.7025 38.854 65.08 38.8893C65.0213 38.4686 65.0793 37.9911 64.9676 37.5971C65.4867 37.8257 65.4721 36.9931 65.7737 36.7885C65.6569 36.7352 65.4648 36.7186 65.4778 36.6006C65.5224 36.4654 65.5668 36.331 65.6109 36.1973C65.718 36.2327 65.8258 36.2683 65.9337 36.3039C65.9581 35.8179 66.2919 35.9463 66.361 35.5479C66.2453 35.4941 66.0537 35.4785 66.0645 35.3616C66.7061 34.9727 66.4535 34.3121 67.1101 33.8251C66.7868 33.6282 66.6316 33.7676 66.4117 33.7721C66.4062 33.408 66.6703 33.5741 66.7319 33.3405C66.5622 33.2454 66.4904 33.103 66.5149 32.9108C66.7269 33.4081 67.2788 33.0123 67.4309 33.3918C67.7029 33.0535 67.2941 33.058 67.241 32.8827C67.5843 32.717 67.6492 31.9982 68.2901 32.4222C68.383 31.9389 68.2162 32.0424 68.5307 31.6938C68.3248 31.3485 68.0579 31.0332 67.7749 30.7274C67.9206 30.7088 67.9794 30.5124 68.1775 30.5925C68.087 30.8166 68.3981 30.8404 68.1779 31.1292C68.4039 31.2194 68.4259 30.9086 68.7172 31.1287C68.7417 30.6843 69.0238 30.7567 69.1185 30.4542C68.8698 30.2438 69.2302 29.7249 69.3043 29.3506C69.1765 29.2573 68.7963 29.2904 68.8445 29.1104C68.8289 28.7664 69.1183 29.0292 69.1415 28.7595C68.6653 28.5269 68.5653 29.0425 68.1726 28.977C68.4592 28.6997 68.864 28.6575 69.0574 28.1952C69.0953 28.6029 69.2332 28.9596 69.5187 29.242C70.0743 28.7329 69.9677 27.7642 70.3207 27.3564C69.7659 27.0154 69.3487 27.6517 68.9486 27.1729C68.9754 27.0916 69.0022 27.0103 69.0288 26.9298C69.4223 27.0875 69.7972 27.2095 69.9428 26.8736C70.1272 26.6458 69.7013 26.7254 69.8883 26.4976C69.6114 26.3967 69.5718 26.7606 69.2956 26.6599C69.4336 26.4862 69.6357 26.4437 69.6713 26.068C69.1357 25.9891 69.2609 25.6075 68.8624 25.8009C68.898 25.6931 68.9336 25.5852 68.9693 25.4774C68.6873 25.6304 68.1763 25.3274 67.8941 25.4812C67.9839 24.8547 68.5894 25.2575 68.9143 25.1004C69.0167 25.3179 69.4796 25.3546 69.2394 25.746C69.7082 25.9328 69.9873 25.342 70.2627 25.9044C70.4427 25.3043 70.2409 25.3746 70.5833 24.9337C70.2441 24.6614 70.2492 25.0713 70.0713 25.1244C70.1028 24.9294 69.7839 24.9108 69.7491 24.7485C69.7759 24.6672 69.8022 24.5875 69.8291 24.5062C70.2785 24.7751 70.4013 24.3952 70.8519 24.6636C70.905 24.5026 70.9584 24.3408 71.0116 24.1798C70.787 24.0909 70.7634 24.4012 70.4723 24.1803C70.4076 24.3184 70.4212 24.6133 70.2055 24.4502C70.2741 24.0533 70.6082 24.1809 70.632 23.6965C70.5163 23.6427 70.325 23.6263 70.3364 23.5079C70.3801 23.4174 70.3995 23.2747 70.4971 23.294C70.7615 23.3622 70.8018 23.5445 70.7954 23.7504C71.07 23.8506 71.1101 23.4851 71.3858 23.5874C71.3621 23.7772 71.4341 23.9214 71.6028 24.017C71.7784 23.7396 72.1544 23.8637 72.1939 23.316C71.9028 23.095 71.879 23.4061 71.6544 23.3172C71.8409 23.0884 71.4129 23.169 71.5997 22.9395C71.8154 23.0107 72.0319 23.0822 72.2476 23.1534C72.3165 22.761 72.1574 22.3817 72.5673 22.185C71.9117 22.0154 72.5772 21.8165 72.6177 21.484C72.4906 21.3909 72.1115 21.4235 72.1597 21.2435C72.2369 21.1277 72.4366 21.2578 72.428 20.9741C72.3935 20.551 71.8998 20.5631 71.5657 20.5984C71.5468 20.4508 71.3504 20.3947 71.43 20.1956C71.7949 20.193 71.6275 20.4558 71.863 20.5171C71.9161 20.3561 71.9696 20.1943 72.023 20.0325C72.498 20.3107 72.5712 19.7845 72.802 19.5738C73.1008 19.9628 73.3613 19.586 73.6372 20.029C73.7731 19.8537 73.977 19.8109 74.0108 19.4355C73.7221 19.2154 73.6975 19.5262 73.4744 19.4378C73.4966 19.1106 73.1199 18.9862 73.4171 18.5218C73.5258 18.5577 73.6321 18.5928 73.7415 18.6289C73.7659 18.1429 74.0999 18.2705 74.1685 17.8737C73.6922 17.7545 73.3665 17.5595 73.3057 17.2317C73.7021 17.685 74.0806 17.3315 74.384 17.7671C74.6925 17.1608 74.1769 16.9715 74.4886 16.3663C75.1298 16.3405 74.7201 15.8542 75.1311 15.5045C74.6455 15.3632 74.0898 14.9067 74.4561 14.5639C74.5358 14.5903 74.6163 14.6168 74.6976 14.6437C74.5432 14.9013 74.6147 15.0445 74.9151 15.0743C75.0069 14.946 74.9736 14.5666 75.1554 14.6145C75.3775 14.661 74.9307 15.0431 75.2916 15.0184C75.3285 14.5573 75.711 14.7824 75.8278 14.4786C75.6552 14.5447 75.1175 14.5769 74.9923 14.292C75.3501 13.8883 76.0581 14.1776 76.308 13.5623C76.1923 13.5085 76.0007 13.4929 76.0121 13.3745C76.0742 13.1861 76.1364 12.9978 76.1986 12.8094C76.3065 12.845 76.4143 12.8806 76.5214 12.916C76.557 12.8081 76.5929 12.6995 76.6285 12.5916C76.3536 12.4922 76.313 12.8567 76.0384 12.7565C76.3074 12.3513 75.962 12.2554 76.1427 11.8947C76.5078 11.8913 76.3397 12.1539 76.5749 12.2159C76.8094 12.0568 76.9289 11.6741 77.1645 11.5144C76.9129 11.1921 76.5914 10.9057 76.6232 10.4394C76.348 10.3382 76.3077 10.7045 76.0315 10.6038C76.1644 10.3746 76.1575 9.8731 76.3799 9.8217C76.4354 10.0394 76.6602 10.1751 76.6232 10.4394C76.8381 10.5104 77.0538 10.5816 77.2687 10.6526C77.3222 10.4908 77.3751 10.3306 77.4287 10.168C77.313 10.1142 77.1214 10.0986 77.1325 9.9809C77.1871 9.8655 77.3519 9.9701 77.4819 10.007C77.9719 9.2214 76.7724 9.2865 77.2632 8.5011C77.0351 8.3149 77.1152 8.7418 76.8864 8.5553C77.0949 8.0001 76.5226 7.8406 76.5611 7.3722C76.6141 7.1644 76.8064 7.2357 76.911 7.1289C77.0247 7.2046 76.8941 7.4059 77.1801 7.3981C77.4733 7.3579 77.5836 6.9505 77.8784 6.9109C77.8896 7.1079 78.1137 7.1958 78.389 7.2598C78.6096 6.9695 78.2985 6.9456 78.389 6.7215C78.2326 6.6491 77.9415 6.9742 77.8771 6.6418C78.0476 6.5794 78.1522 6.3859 78.4422 6.5605C78.6829 6.0809 78.3078 5.8098 78.7621 5.5914C78.6435 5.0425 78.0591 4.3737 78.5676 3.7338C78.7006 4.0031 78.8102 4.2854 78.7065 4.6759C78.9292 4.7651 78.9544 4.4553 79.2429 4.6736C79.2963 4.5118 79.3495 4.3508 79.4026 4.1898C79.2769 4.0954 78.8975 4.1288 78.947 3.9475C79.0279 3.8442 78.9889 3.5002 79.1598 3.5705C79.2403 3.5971 79.3216 3.6239 79.4029 3.6508C79.3673 3.7586 79.3319 3.8657 79.2961 3.9743C79.5238 4.1587 79.444 3.7337 79.6725 3.9183C79.7609 3.6953 79.4519 3.6704 79.6697 3.3809C79.4485 3.3867 79.2943 3.5256 78.9712 3.3279C79.0063 3.2217 79.0419 3.1138 79.0778 3.0052C78.7867 2.7868 78.7642 3.0966 78.5396 3.0077C78.4494 3.2336 78.761 3.2559 78.5408 3.5447C78.0122 3.4525 77.9483 3.1263 77.8932 2.7943C78.0194 2.6011 78.1893 2.4882 78.4846 2.6307C78.4548 2.7787 78.2697 3.0088 78.5396 3.0077C78.5914 2.4857 78.9692 2.6122 79.0205 2.0917C78.6972 1.8949 78.543 2.0338 78.3218 2.0396C78.375 1.8786 78.4284 1.7168 78.4816 1.5558C78.191 1.3333 78.1682 1.6465 77.9423 1.5563C78.1054 1.3406 77.811 1.3526 77.6726 1.2887C77.7088 1.1793 77.7444 1.0714 77.78 0.963598C77.1267 0.889198 77.267 0.4146 77.1847 0.052C76.8452 0.1773 76.5004 0.2949 75.9485 0C75.9633 0.2415 76.1362 0.465899 75.6791 0.269899C75.5867 0.523699 76.1109 0.8129 75.7075 0.9979C75.5835 0.7012 75.3964 0.435799 75.0604 0.245899C74.9574 0.353199 74.7643 0.281599 74.7105 0.489199C74.8069 0.530599 74.8947 0.576999 74.8188 0.704399C75.0479 0.890099 74.9681 0.462499 75.1951 0.649199C75.0093 0.944099 74.8253 1.2492 74.6338 1.5379C74.5525 1.511 74.4728 1.4847 74.3908 1.4576C74.632 0.979 74.2561 0.710199 74.7105 0.489199C74.5495 0.436099 74.3877 0.382698 74.2267 0.329498C73.8973 0.744298 74.2993 1.1414 73.9867 1.3242C73.8725 1.2475 74.0026 1.0477 73.7171 1.0566C73.5646 1.1562 73.3482 1.1264 73.3142 1.4601C73.6703 1.6314 73.9444 1.6413 74.1761 1.567C73.8499 1.7228 73.76 2.3467 73.5875 2.8063C73.4324 2.7352 73.1418 3.0587 73.0763 2.7268C73.1249 2.6033 73.3025 2.7321 73.3181 2.5379C73.0482 2.539 73.2336 2.3107 73.2626 2.1625C72.8096 2.3978 72.8459 1.8022 72.3472 1.68C72.5714 1.9248 72.5306 2.3057 72.5633 2.6476C72.0415 2.5507 72.3492 2.036 71.7018 2.0043C71.6725 2.3032 71.529 2.3754 71.2722 2.2213C71.1046 2.5135 71.1609 3.2489 70.6815 2.9234C70.5729 3.3365 71.2239 3.3677 71.1147 3.7823C70.6916 3.6331 70.6912 3.9285 70.4684 3.5689C70.3972 3.7846 70.3262 3.9996 70.255 4.2153C70.6381 4.2915 70.8431 4.458 70.7945 4.7523C70.1747 4.2824 69.8373 5.0759 69.4218 4.5677C69.4877 4.2081 69.6695 4.08 69.9322 4.1087C69.7374 3.7116 70.1193 3.8359 70.1988 3.3013C69.8707 3.3603 69.9418 3.3838 69.7126 3.1408C69.7505 3.6587 69.2958 3.2008 69.2298 3.5188C69.1296 3.7934 69.4949 3.8343 69.3929 4.1092C69.2858 4.0738 69.178 4.0382 69.0701 4.0026C69.1055 3.8955 69.1408 3.7885 69.1767 3.6798C68.9523 3.5902 68.9282 3.902 68.6387 3.6816C68.4687 4.0363 68.4586 4.3112 68.5336 4.5432C68.0823 4.272 67.887 4.5065 67.5113 4.3842C67.3306 4.9685 66.9494 5.6557 67.3539 5.9453C67.1921 5.8918 67.0311 5.8387 66.8693 5.7853C67.0233 5.5501 66.8994 5.4554 66.8412 5.327C66.8906 5.2038 67.0674 5.3323 67.0825 5.1397C66.7147 5.0538 67.0365 4.6227 66.7579 4.4951C66.6494 4.9707 66.5306 5.0312 66.3288 4.7106C66.1848 5.1389 66.0819 5.6501 65.7926 5.7886C66.0206 5.9748 65.9405 5.5479 66.1685 5.7342C66.0919 6.0738 65.8535 6.0896 65.7123 6.2995C65.372 6.2695 65.6025 5.9521 65.2004 5.9519C65.1116 6.31 64.8961 6.4166 64.5568 6.276C64.4149 6.6165 64.5235 6.831 64.8801 6.9218C64.914 6.5855 65.1312 6.6155 65.2829 6.5157C65.4874 6.6603 65.7329 6.783 65.7414 7.0277C65.3885 6.86 65.1259 6.873 64.9885 7.137C64.9982 7.5277 65.0859 8.1625 65.6377 7.8879C65.5608 8.2283 65.3227 8.2433 65.1812 8.454C65.1015 8.4277 65.0186 8.4003 64.9389 8.374C64.9921 8.213 65.0457 8.0504 65.0989 7.8894C64.8735 7.8003 64.8502 8.1098 64.5604 7.8902C64.7167 7.498 64.4793 7.3035 64.2898 7.0849C63.7505 6.9961 63.4421 7.3658 62.8363 7.1424C62.5906 7.5345 63.0333 7.5827 62.9472 7.8958C62.5579 7.7439 62.538 7.4339 62.1383 7.6287C62.2924 7.3719 62.2204 7.2277 61.9213 7.1991C61.9634 7.5597 62.2055 7.8191 62.1125 8.2477C61.8101 8.4495 61.3404 8.3205 61.1456 8.7346C61.0651 8.708 60.9838 8.6812 60.9025 8.6544C60.9557 8.4934 61.0091 8.3316 61.0625 8.1698C60.722 7.9386 60.7044 8.3488 60.3628 8.1182C60.3535 8.8103 59.7876 8.398 59.5038 8.5514C59.3613 8.7808 59.7487 8.7414 59.5314 9.0086C59.1867 9.0811 59.0127 9.4926 58.5364 9.3076C58.34 9.8079 58.1033 10.2281 57.5708 10.0636C57.6064 9.9557 57.6418 9.8487 57.6772 9.7416C57.3805 9.5977 57.2122 9.7112 57.0847 9.9031C57.2771 10.1209 57.6588 10.2435 57.3574 10.71C57.5231 10.9406 57.9006 11.0652 57.8433 11.4069C57.6815 11.3535 57.5205 11.3003 57.3579 11.2466C57.512 10.9898 57.4406 10.8466 57.1417 10.8173C57.015 11.1013 57.0267 11.6617 56.6042 11.3584C56.5224 11.6928 56.6934 12.2537 56.3131 12.5156C56.1441 12.3081 56.1761 12.0014 56.1212 11.7371C55.8942 11.5504 55.9732 11.9778 55.7455 11.7908C55.7808 11.6837 55.8164 11.5758 55.8518 11.4688C55.9596 11.5044 56.0667 11.5397 56.1746 11.5753C56.2827 11.1638 56.4084 10.7884 56.7647 10.8722C56.8544 10.6479 56.5449 10.6245 56.7653 10.335C56.548 10.2633 56.3331 10.1923 56.1181 10.1213C55.9317 10.5573 55.2885 10.0823 55.2036 10.7148C55.4947 10.9357 55.5181 10.6262 55.7424 10.7132C55.6854 11.0905 55.5052 11.2243 55.2859 11.2819C54.9419 11.2975 55.2042 11.0071 54.9363 10.9862C54.8503 11.5749 54.2677 11.1737 54.1036 11.6075C53.9643 11.4757 54.0406 11.2339 53.8064 11.1505C53.4254 11.0629 53.3524 11.5883 53.0277 11.6111C52.9031 11.5604 53.0317 11.3836 52.8383 11.3683C52.5503 11.5055 52.3681 12.0573 52.5178 12.339C52.2612 12.1841 52.1177 12.2563 52.0889 12.5536C52.2144 12.6488 52.594 12.6147 52.5464 12.7957C52.1857 13.3527 51.834 13.7011 51.7975 14.2499C51.7681 13.9507 51.4477 13.7972 51.202 13.6069C51.399 13.5957 51.4879 13.3711 51.5522 13.095C50.8642 12.9788 50.3741 13.2529 49.5042 12.7768C49.5059 13.1786 49.1877 12.9479 49.1569 13.2905C49.2339 13.543 49.3525 13.7746 49.2405 14.1242C49.3667 14.217 49.7458 14.1818 49.6987 14.3639C49.3731 14.2529 49.2833 14.6116 49.1068 14.7969C48.9081 14.2909 48.8414 13.7185 48.4308 13.3186C48.018 13.2091 47.8517 13.7887 48.0019 14.0741C47.5912 14.0555 47.8195 13.7157 47.4087 13.6997C47.3556 13.8607 47.3024 14.0217 47.249 14.1835C46.9082 13.953 46.8903 14.3615 46.5495 14.131C46.6145 14.3042 46.6478 14.8413 46.3629 14.9665C45.9637 14.8971 45.9372 14.6414 45.7171 14.4837C45.8392 14.4157 45.9959 14.4137 46.0107 14.1326C45.655 14.0498 45.5285 14.4223 45.4214 14.8334C45.1604 14.8495 44.9441 14.9583 44.7755 15.1592C45.0451 15.2483 45.314 15.337 45.5836 15.4261C45.6385 15.3098 45.6538 15.1164 45.7715 15.1301C45.8632 15.1725 46.0059 15.1893 45.9867 15.2896C45.6531 15.3259 45.7607 15.638 45.7999 15.8554C45.4363 15.8593 45.6029 15.5962 45.37 15.535C45.2759 15.6599 45.3111 16.0416 45.129 15.9919C44.8641 15.9226 44.824 15.7421 44.8307 15.5354C44.6061 15.4466 44.5825 15.7569 44.293 15.5365C44.2296 15.8596 44.0401 15.9271 43.8084 15.9147C43.6237 16.1432 44.0516 16.0626 43.8644 16.2912C43.4409 15.9433 43.5279 16.6039 43.3 16.6431C43.2086 16.5999 43.0669 16.58 43.0854 16.4821C43.5948 16.2334 43.1523 15.6704 43.6458 15.3228C43.2878 15.5487 42.8458 15.6064 42.4904 15.8375C42.4237 15.7141 42.4211 15.559 42.1397 15.5423C41.905 15.8176 42.4803 15.6868 42.383 15.8922C41.9272 16.1465 41.6698 16.7922 41.0934 16.8108C41.0742 16.664 40.8788 16.6047 40.9577 16.408C40.6055 16.3983 40.4767 16.7753 40.2579 16.3563C40.1979 16.5905 39.933 16.4242 39.9371 16.787C40.3454 17.018 40.5702 16.8833 40.8789 16.9194C40.8914 17.0969 41.2981 17.4218 41.0417 17.5105C40.9008 17.3782 40.9798 17.139 40.7445 17.0535C40.7581 17.3484 40.4641 17.0286 40.4774 17.3242C40.4828 17.5444 40.6209 17.7009 40.4243 18.0235C40.2085 17.9522 39.9936 17.8813 39.7779 17.8101C39.8138 17.7014 39.8491 17.5943 39.8847 17.4865C39.6043 17.6219 39.2221 17.4957 39.0774 17.2199C39.0556 17.803 38.6776 17.6773 38.27 17.4916C38.1537 18.0669 37.2591 18.1433 37.1677 17.5749C37.2987 17.4353 37.5405 17.5142 37.6236 17.2782C37.105 17.1373 36.6262 17.078 36.4411 17.6046C36.6654 17.6942 36.6893 17.3831 36.9796 17.6038C36.9089 17.818 36.8374 18.0344 36.7667 18.2486C36.6041 18.1949 36.4431 18.1418 36.2813 18.0883C36.3164 17.9821 36.3521 17.8742 36.3877 17.7663C36.0739 17.6324 35.8698 17.7202 35.7681 18.0099C35.8804 18.3365 36.1555 18.5798 36.176 18.9507C35.4737 18.8098 35.3634 18.3721 34.8294 18.1463C34.7579 18.3628 34.6867 18.5786 34.6158 18.7935C34.2741 18.5628 34.2566 18.9731 33.9149 18.7424C33.9705 19.0728 34.1454 19.3437 34.1329 19.7097C33.9719 19.6566 33.8102 19.6032 33.6484 19.5497C33.4468 19.953 33.27 20.4043 32.9517 20.573C33.2213 20.1238 32.9891 19.9267 33.1106 19.5507C32.8352 19.4503 32.7939 19.8145 32.5177 19.7138C32.614 19.6243 33.1017 19.2314 32.7308 19.0682C32.5887 19.5249 32.2559 20.0105 32.0347 19.5543C31.9812 19.7161 31.9273 19.8795 31.8744 20.0397C32.1972 20.2355 32.353 20.0971 32.5729 20.0926C32.4978 20.522 32.1579 20.4254 31.9559 20.604C31.8324 20.5554 31.9607 20.3768 31.7676 20.3632C31.4918 20.508 31.3656 20.8901 31.5007 21.1714C31.3929 21.1358 31.2843 21.0999 31.1772 21.0646C31.2128 20.9567 31.2487 20.8481 31.284 20.741C30.9879 20.5981 30.8201 20.71 30.6918 20.9043C30.8078 20.9573 30.9991 20.9737 30.988 21.0914C30.9193 21.3547 30.7372 21.3969 30.5321 21.3881C30.5855 21.2263 30.6387 21.0653 30.6918 20.9043C30.463 20.7178 30.5431 21.1447 30.3159 20.9587C30.312 20.5951 30.5753 20.761 30.6369 20.5273C30.4596 20.4133 30.0172 20.4354 30.0166 20.2324C30.1492 19.9147 30.4206 19.8752 30.6898 19.8262C30.5465 20.1239 30.6575 20.2914 30.8523 20.4182C30.8769 20.0917 30.646 19.8933 30.7956 19.5058C30.3799 19.3919 30.3892 20.1248 29.8269 19.7225C29.5862 20.1995 29.9621 20.4709 29.507 20.6916Z" fill="white"/>
</svg>
